<?xml version="1.0" encoding="UTF-8" standalone="no"?>
<!-- Created with Inkscape (http://www.inkscape.org/) -->

<svg
   width="1000"
   height="800"
   viewBox="0 0 264.58333 211.66666"
   version="1.1"
   id="svg5"
   xml:space="preserve"
   sodipodi:docname="drawing.svg"
   inkscape:version="1.2.2 (732a01da63, 2022-12-09)"
   xmlns:inkscape="http://www.inkscape.org/namespaces/inkscape"
   xmlns:sodipodi="http://sodipodi.sourceforge.net/DTD/sodipodi-0.dtd"
   xmlns="http://www.w3.org/2000/svg"
   xmlns:svg="http://www.w3.org/2000/svg"><sodipodi:namedview
     id="namedview7"
     pagecolor="#ffffff"
     bordercolor="#666666"
     borderopacity="1.0"
     inkscape:showpageshadow="2"
     inkscape:pageopacity="0.0"
     inkscape:pagecheckerboard="0"
     inkscape:deskcolor="#d1d1d1"
     inkscape:document-units="mm"
     showgrid="false"
     inkscape:zoom="0.32567287"
     inkscape:cx="55.270186"
     inkscape:cy="420.66753"
     inkscape:window-width="1366"
     inkscape:window-height="697"
     inkscape:window-x="-8"
     inkscape:window-y="-8"
     inkscape:window-maximized="1"
     inkscape:current-layer="layer1" /><defs
     id="defs2" /><g
     inkscape:label="Layer 1"
     inkscape:groupmode="layer"
     id="layer1"><g
       id="g893"
       transform="matrix(0.38119438,0,0,0.38119438,-6.691533,17.957096)"
       style="stroke-width:0.694089"><g
         id="freepik--background-complete--inject-18"
         style="stroke-width:0.694089"><path
           d="m 367.53,51.46 a 5.34,5.34 0 0 0 3.19,-5 5,5 0 1 0 -10,0 5.35,5.35 0 0 0 3.2,5 c -7.71,1.16 -7.36,9.54 -7.36,9.54 l 18.23,0.09 c 0,0 0.39,-8.48 -7.26,-9.63 z"
           style="fill:#ebebeb;stroke-width:0.694089"
           id="path132" /><path
           d="m 653,155.47 a 11.79,11.79 0 0 0 7,-10.92 c 0,-6.52 -4.9,-11.82 -11,-11.85 -6.1,-0.03 -11.09,5.23 -11.11,11.75 a 11.78,11.78 0 0 0 7,11 c -17,2.57 -16.26,21.08 -16.26,21.08 l 40.28,0.19 c 0,0 1.02,-18.72 -15.91,-21.25 z"
           style="fill:#ebebeb;stroke-width:0.694089"
           id="path134" /><path
           d="m 648.87,200.46 a 44.34,44.34 0 1 1 44.33,-44.34 44.38,44.38 0 0 1 -44.33,44.34 z m 0,-87.41 a 43.07,43.07 0 1 0 43.07,43.07 43.12,43.12 0 0 0 -43.07,-43.07 z"
           style="fill:#ebebeb;stroke-width:0.694089"
           id="path136" /><path
           d="m 169.88,98.54 a 10.76,10.76 0 0 0 6.42,-10 c 0,-6 -4.48,-10.79 -10.06,-10.82 -5.58,-0.03 -10.11,4.77 -10.14,10.72 a 10.75,10.75 0 0 0 6.44,10.06 c -15.55,2.34 -14.84,19.23 -14.84,19.23 l 36.75,0.17 c 0,0 0.84,-17.03 -14.57,-19.36 z"
           style="fill:#ebebeb;stroke-width:0.694089"
           id="path138" /><path
           d="m 166.08,139.64 a 40.51,40.51 0 1 1 40.5,-40.51 40.55,40.55 0 0 1 -40.5,40.51 z m 0,-79.75 a 39.25,39.25 0 1 0 39.24,39.24 39.3,39.3 0 0 0 -39.24,-39.24 z"
           style="fill:#ebebeb;stroke-width:0.694089"
           id="path140" /><path
           d="m 526.55,88.79 a 8.43,8.43 0 0 0 5,-7.79 7.92,7.92 0 1 0 -15.81,-0.08 8.42,8.42 0 0 0 5,7.87 c -12.16,1.84 -11.61,15.06 -11.61,15.06 L 538,104 c 0,0 0.61,-13.38 -11.45,-15.21 z"
           style="fill:#ebebeb;stroke-width:0.694089"
           id="path142" /><path
           d="M 523.57,121 A 31.84,31.84 0 1 1 555.41,89.2 31.87,31.87 0 0 1 523.57,121 Z m 0,-62.41 A 30.58,30.58 0 1 0 554.15,89.2 30.6,30.6 0 0 0 523.57,58.63 Z"
           style="fill:#ebebeb;stroke-width:0.694089"
           id="path144" /><path
           d="m 411,156.63 a 6,6 0 0 0 3.55,-5.51 5.59,5.59 0 1 0 -11.16,-0.05 6,6 0 0 0 3.55,5.56 c -8.58,1.29 -8.19,10.63 -8.19,10.63 l 20.3,0.09 c 0,0 0.5,-9.44 -8.05,-10.72 z"
           style="fill:#ebebeb;stroke-width:0.694089"
           id="path146" /><path
           d="M 408.94,179.49 A 22.54,22.54 0 1 1 431.48,157 22.56,22.56 0 0 1 408.94,179.49 Z m 0,-44.06 A 21.53,21.53 0 1 0 430.47,157 21.56,21.56 0 0 0 408.94,135.43 Z"
           style="fill:#ebebeb;stroke-width:0.694089"
           id="path148" /><path
           d="m 64.87,254.64 a 5.42,5.42 0 0 0 3.23,-5 5.09,5.09 0 1 0 -10.16,0 5.41,5.41 0 0 0 3.24,5.06 c -7.82,1.18 -7.47,9.67 -7.47,9.67 l 18.49,0.09 c 0,0 0.42,-8.65 -7.33,-9.82 z"
           style="fill:#ebebeb;stroke-width:0.694089"
           id="path150" /><path
           d="M 63,275.62 A 20.69,20.69 0 1 1 83.68,254.94 20.71,20.71 0 0 1 63,275.62 Z m 0,-40.11 A 19.43,19.43 0 1 0 82.42,254.94 19.46,19.46 0 0 0 63,235.51 Z"
           style="fill:#ebebeb;stroke-width:0.694089"
           id="path152" /><path
           d="m 76.83,239.22 c -0.16,-0.1 15.77,-24.39 35.57,-54.24 19.8,-29.85 36,-54 36.13,-53.88 0.13,0.12 -15.78,24.39 -35.53,54.25 -19.75,29.86 -36,53.97 -36.17,53.87 z"
           style="fill:#ebebeb;stroke-width:0.694089"
           id="path154" /><path
           d="m 429.84,151.81 c -0.08,-0.12 15.39,-10 34.53,-22.08 19.14,-12.08 34.74,-21.76 34.82,-21.64 0.08,0.12 -15.38,10 -34.54,22.08 -19.16,12.08 -34.73,21.76 -34.81,21.64 z"
           style="fill:#ebebeb;stroke-width:0.694089"
           id="path156" /><path
           d="m 387.41,157 c 0,0.14 -42,-7 -93.65,-16 -51.65,-9 -93.6,-16.31 -93.58,-16.45 0.02,-0.14 41.95,7 93.67,15.94 51.72,8.94 93.59,16.33 93.56,16.51 z"
           style="fill:#ebebeb;stroke-width:0.694089"
           id="path158" /><path
           d="m 610.11,136.81 c -0.08,0.12 -13,-7.59 -28.92,-17.23 -15.92,-9.64 -28.72,-17.58 -28.65,-17.68 0.07,-0.1 13,7.59 28.92,17.23 15.92,9.64 28.72,17.56 28.65,17.68 z"
           style="fill:#ebebeb;stroke-width:0.694089"
           id="path160" /><path
           d="m 125.46,105.58 c 0,0.14 -12,0.4 -26.92,0.58 -14.92,0.18 -26.93,0.21 -26.93,0.06 0,-0.15 12,-0.4 26.92,-0.58 14.92,-0.18 26.93,-0.21 26.93,-0.06 z"
           style="fill:#ebebeb;stroke-width:0.694089"
           id="path162" /><path
           d="m 58,105.49 a 3.4,3.4 0 0 0 2,-3.15 3.2,3.2 0 1 0 -6.38,0 3.4,3.4 0 0 0 2,3.18 c -4.91,0.74 -4.68,6.08 -4.68,6.08 l 11.61,0.05 c 0,0 0.28,-5.43 -4.55,-6.16 z"
           style="fill:#ebebeb;stroke-width:0.694089"
           id="path164" /><path
           d="M 56.76,118.91 A 13.23,13.23 0 1 1 70,105.68 13.25,13.25 0 0 1 56.76,118.91 Z m 0,-25.2 a 12,12 0 1 0 12,12 12,12 0 0 0 -12,-12 z"
           style="fill:#ebebeb;stroke-width:0.694089"
           id="path166" /><path
           d="m 365.65,72.53 a 20.78,20.78 0 1 1 20.77,-20.78 20.8,20.8 0 0 1 -20.77,20.78 z m 0,-39.57 A 18.8,18.8 0 1 0 384.44,51.75 18.81,18.81 0 0 0 365.65,33 Z"
           style="fill:#ebebeb;stroke-width:0.694089"
           id="path168" /><path
           d="m 397.33,138.68 a 5.28,5.28 0 0 1 -0.27,-0.67 l -0.67,-2 c -0.6,-1.76 -1.43,-4.21 -2.46,-7.21 -2.09,-6.08 -5.09,-14.45 -8.68,-23.57 C 381.66,96.11 378.14,88 375.52,82.1 l -3.13,-6.94 -0.84,-1.89 a 3.16,3.16 0 0 1 -0.26,-0.68 3.87,3.87 0 0 1 0.35,0.63 l 0.94,1.85 c 0.8,1.61 1.92,4 3.27,6.88 2.71,5.84 6.28,14 9.88,23.13 3.6,9.13 6.55,17.52 8.55,23.64 1,3.06 1.79,5.54 2.3,7.26 0.24,0.83 0.44,1.49 0.58,2 a 3.32,3.32 0 0 1 0.17,0.7 z"
           style="fill:#ebebeb;stroke-width:0.694089"
           id="path170" /><path
           d="m 26.11,398.21 v 35.05 h -5.85 v 3.81 h 5.85 v 23.46 H 135.5 v -21.35 h -8.1 v -4.65 h 8.1 v -7 h 3.6 v -3.17 h -4.27 v -26.15 z"
           style="fill:#f5f5f5;stroke-width:0.694089"
           id="path172" /><polygon
           points="106.45,460.13 135.5,460.13 135.5,438.79 127.4,438.79 127.4,434.53 135.5,434.67 135.5,427.7 139.18,427.7 139.1,424.1 134.83,424 134.83,398.21 106.45,398.31 "
           style="fill:#e0e0e0;stroke-width:0.694089"
           id="polygon174" /><path
           d="m 108.52,436.56 c 0,0.22 -19.79,0.39 -44.2,0.39 -24.41,0 -44.21,-0.17 -44.21,-0.39 0,-0.22 19.79,-0.39 44.21,-0.39 24.42,0 44.2,0.18 44.2,0.39 z"
           style="fill:#e0e0e0;stroke-width:0.694089"
           id="path176" /><path
           d="m 108.52,433 c 0,0.22 -19.79,0.39 -44.2,0.39 -24.41,0 -44.21,-0.17 -44.21,-0.39 0,-0.22 19.79,-0.39 44.21,-0.39 24.42,0 44.2,0.18 44.2,0.39 z"
           style="fill:#e0e0e0;stroke-width:0.694089"
           id="path178" /><path
           d="m 114.2,423.42 c 0,0.22 -19.79,0.39 -44.2,0.39 -24.41,0 -44.22,-0.17 -44.22,-0.39 0,-0.22 19.79,-0.42 44.22,-0.42 24.43,0 44.2,0.21 44.2,0.42 z"
           style="fill:#e0e0e0;stroke-width:0.694089"
           id="path180" /><path
           d="m 114.75,449.53 c 0,0.22 -19.8,0.39 -44.21,0.39 -24.41,0 -44.21,-0.17 -44.21,-0.39 0,-0.22 19.79,-0.39 44.21,-0.39 24.42,0 44.21,0.18 44.21,0.39 z"
           style="fill:#e0e0e0;stroke-width:0.694089"
           id="path182" /><path
           d="m 38.3,336.51 v 35.05 h -5.86 v 3.8 h 5.86 v 23.46 h 109.39 v -21.34 h -8.11 v -4.65 h 8.11 v -7 h 3.6 v -3.17 H 147 v -26.15 z"
           style="fill:#f5f5f5;stroke-width:0.694089"
           id="path184" /><polygon
           points="118.64,398.43 147.69,398.43 147.69,377.09 139.58,377.09 139.58,372.83 147.69,372.97 147.69,366 151.36,366 151.29,362.4 147.01,362.29 147.01,336.51 118.64,336.61 "
           style="fill:#e0e0e0;stroke-width:0.694089"
           id="polygon186" /><path
           d="m 120.71,374.86 c 0,0.22 -19.8,0.39 -44.21,0.39 -24.41,0 -44.21,-0.17 -44.21,-0.39 0,-0.22 19.79,-0.39 44.21,-0.39 24.42,0 44.21,0.18 44.21,0.39 z"
           style="fill:#e0e0e0;stroke-width:0.694089"
           id="path188" /><path
           d="m 120.71,371.3 c 0,0.22 -19.8,0.39 -44.21,0.39 -24.41,0 -44.21,-0.17 -44.21,-0.39 0,-0.22 19.79,-0.39 44.21,-0.39 24.42,0 44.21,0.18 44.21,0.39 z"
           style="fill:#e0e0e0;stroke-width:0.694089"
           id="path190" /><path
           d="m 126.39,361.72 c 0,0.21 -19.8,0.39 -44.21,0.39 -24.41,0 -44.18,-0.18 -44.18,-0.39 0,-0.21 19.79,-0.39 44.21,-0.39 24.42,0 44.18,0.17 44.18,0.39 z"
           style="fill:#e0e0e0;stroke-width:0.694089"
           id="path192" /><path
           d="m 126.93,387.83 c 0,0.21 -19.79,0.39 -44.2,0.39 -24.41,0 -44.22,-0.18 -44.22,-0.39 0,-0.21 19.79,-0.39 44.22,-0.39 24.43,0 44.2,0.18 44.2,0.39 z"
           style="fill:#e0e0e0;stroke-width:0.694089"
           id="path194" /><path
           d="m 684.12,337.17 c 6.42,-3.32 14,-3.75 21.11,-2.57 3.83,0.63 7.82,1.78 10.42,4.66 2.6,2.88 3.1,7.93 0.11,10.41 -1.78,1.47 -4.26,1.69 -6.57,1.66 -5.58,-0.06 -11.77,-1 -16.23,2.31 -2.55,1.92 -4.24,5.1 -7.28,6.05 -3.04,0.95 -6.33,-0.84 -7.91,-3.52 a 12.31,12.31 0 0 1 -0.9,-9.07 13.84,13.84 0 0 1 7.25,-9.93 z"
           style="fill:#ebebeb;stroke-width:0.694089"
           id="path196" /><path
           d="m 669.41,308.77 c 3.92,5.61 11.55,3.75 15.09,0.33 3.54,-3.42 5,-8.39 6.4,-13.12 3.11,-10.81 6.24,-22.14 3.93,-33.15 a 18.49,18.49 0 0 0 -4.23,-9 c -2.32,-2.44 -5.87,-3.89 -9.12,-3 -3.85,1 -6.24,4.78 -8,8.37 a 79.06,79.06 0 0 0 -7.81,33.92 c 0,5.46 0.62,11.19 3.71,15.7"
           style="fill:#ebebeb;stroke-width:0.694089"
           id="path198" /><path
           d="m 658.63,316.81 c 4.26,-5.05 5.07,-12.43 3.17,-18.77 -1.9,-6.34 -6.18,-11.73 -11.12,-16.13 a 59.83,59.83 0 0 0 -19.92,-11.75 21.09,21.09 0 0 0 -9,-1.53 9.42,9.42 0 0 0 -7.52,4.55 c -2.09,4 -0.08,8.85 2.09,12.8 a 151.91,151.91 0 0 0 13.08,19.92 c 3.92,5.06 8.41,10 14.39,12.33 5.98,2.33 12.18,2 15.34,-2.13"
           style="fill:#ebebeb;stroke-width:0.694089"
           id="path200" /><path
           d="m 669.14,393.36 a 13.15,13.15 0 0 0 0.36,-2.55 q 0.27,-2.79 0.67,-6.95 a 100.05,100.05 0 0 1 1.57,-10.2 79.14,79.14 0 0 1 3.7,-12 44.64,44.64 0 0 1 6.15,-10.9 23.07,23.07 0 0 1 7.77,-6.46 21.8,21.8 0 0 1 6.55,-2 12.9,12.9 0 0 0 2.54,-0.37 11.81,11.81 0 0 0 -2.59,0 19.93,19.93 0 0 0 -6.82,1.77 22.9,22.9 0 0 0 -8.2,6.52 43.71,43.71 0 0 0 -6.37,11.11 72.78,72.78 0 0 0 -3.68,12.24 86.51,86.51 0 0 0 -1.36,10.33 c -0.22,2.95 -0.3,5.34 -0.34,7 a 12.09,12.09 0 0 0 0.05,2.46 z"
           style="fill:#e0e0e0;stroke-width:0.694089"
           id="path202" /><path
           d="m 669.62,388 a 4.86,4.86 0 0 0 0.07,-1.19 c 0,-0.88 0,-2 0,-3.38 0,-2.93 0,-7.18 0.15,-12.42 0.26,-10.49 1.16,-21.77 2.91,-37.68 1.65,-15 3.86,-32.38 6.2,-43.7 0.51,-2.57 1,-4.89 1.49,-6.92 0.49,-2.03 0.84,-3.79 1.21,-5.2 0.37,-1.41 0.58,-2.43 0.79,-3.29 a 5.59,5.59 0 0 0 0.21,-1.17 4.38,4.38 0 0 0 -0.41,1.11 c -0.26,0.85 -0.59,1.92 -1,3.24 -0.41,1.32 -0.89,3.15 -1.4,5.17 -0.51,2.02 -1.08,4.34 -1.63,6.91 A 381.48,381.48 0 0 0 671.69,330 c -1.75,15.94 -2.53,30.46 -2.6,41 -0.07,5.25 0,9.51 0.18,12.44 0.08,1.38 0.15,2.49 0.21,3.38 a 5.11,5.11 0 0 0 0.14,1.18 z"
           style="fill:#e0e0e0;stroke-width:0.694089"
           id="path204" /><path
           d="m 669.69,360 a 23.45,23.45 0 0 0 0,-3.54 c -0.13,-2.27 -0.45,-5.55 -1.09,-9.56 a 124.27,124.27 0 0 0 -3.11,-14 113.61,113.61 0 0 0 -5.83,-16.49 c -4.83,-11.47 -11.4,-20.85 -17.12,-26.66 a 43.07,43.07 0 0 0 -4,-3.75 c -0.61,-0.52 -1.16,-1 -1.72,-1.45 l -1.56,-1.08 a 23.18,23.18 0 0 0 -3,-1.9 c -0.17,0.23 4.21,2.81 9.74,8.69 a 92.83,92.83 0 0 1 16.7,26.56 130.78,130.78 0 0 1 5.86,16.35 c 1.53,5.12 2.54,9.83 3.31,13.8 0.77,3.97 1.15,7.23 1.41,9.48 a 23.64,23.64 0 0 0 0.41,3.55 z"
           style="fill:#e0e0e0;stroke-width:0.694089"
           id="path206" /><polygon
           points="645.43,447.84 694.81,447.84 697.62,409.4 642.63,409.4 "
           style="fill:#e0e0e0;stroke-width:0.694089"
           id="polygon208" /><rect
           x="637.85999"
           y="394.25"
           width="65.660004"
           height="15.15"
           style="fill:#e0e0e0;stroke-width:0.694089"
           id="rect210" /><polygon
           points="702.43,450.57 702.43,446.37 637.86,446.37 637.86,450.57 640.94,450.57 "
           style="fill:#ebebeb;stroke-width:0.694089"
           id="polygon212" /><polygon
           points="640.94,450.57 700.08,450.57 696.55,457.96 643.97,457.96 "
           style="fill:#e0e0e0;stroke-width:0.694089"
           id="polygon214" /><path
           d="m 696.7,422 a 1.39,1.39 0 0 1 -0.23,0.36 c -0.19,0.26 -0.44,0.58 -0.74,1 l -2.87,3.64 -0.13,0.16 -0.12,-0.17 c -1.81,-2.5 -4.23,-5.84 -7.07,-9.78 H 686 l -7,9.86 -0.22,0.3 -0.25,-0.29 -8.25,-9.81 h 0.48 l -0.46,0.57 -7.37,9.25 -0.25,0.31 -0.23,-0.32 c -2.5,-3.55 -4.84,-6.86 -7,-9.85 h 0.41 l -8.55,9.77 -0.15,0.17 L 647,427 c -1.13,-1.89 -2,-3.41 -2.68,-4.51 l -0.69,-1.2 a 2,2 0 0 1 -0.21,-0.43 3.25,3.25 0 0 1 0.29,0.39 l 0.76,1.15 2.82,4.43 h -0.27 l 8.44,-9.89 0.21,-0.25 0.19,0.27 7,9.8 h -0.47 l 7.36,-9.26 0.46,-0.57 0.23,-0.3 0.24,0.29 8.23,9.84 h -0.46 l 7,-9.81 0.2,-0.28 0.21,0.28 c 2.78,4 5.14,7.36 6.91,9.88 h -0.25 l 3,-3.59 0.81,-0.93 A 1.88,1.88 0 0 1 696.7,422 Z"
           style="fill:#f5f5f5;stroke-width:0.694089"
           id="path216" /><path
           d="m 698.31,409.15 c 0,0.17 -12.38,0.3 -27.64,0.3 -15.26,0 -27.63,-0.13 -27.63,-0.3 0,-0.17 12.37,-0.31 27.63,-0.31 15.26,0 27.64,0.16 27.64,0.31 z"
           style="fill:#f5f5f5;stroke-width:0.694089"
           id="path218" /><path
           d="m 700.8,451 c 0,0.17 -13.45,0.31 -30,0.31 -16.55,0 -30,-0.14 -30,-0.31 0,-0.17 13.45,-0.31 30,-0.31 16.55,0 30,0.12 30,0.31 z"
           style="fill:#f5f5f5;stroke-width:0.694089"
           id="path220" /></g><g
         id="freepik--character-2--inject-18"
         style="stroke-width:0.694089"><path
           d="m 426,361.75 c 0,0 10.57,-6.58 14.55,-6.14 l 22.87,5.33 c 0,0 2,2.14 -2,4.11 -4,1.97 -9,-0.86 -9,-0.86 l -5.56,0.78 3.84,3.21 15.17,4.67 c 0,0 11,3.1 9.66,4.72 -1.34,1.62 -4.64,1.82 -9.38,0.48 l -10.76,-3 c 0,0 -1.88,-0.41 1.15,1.69 3.03,2.1 16.34,5.37 18.1,6.24 1.76,0.87 6.54,1.6 6,4.33 -0.54,2.73 -6.52,0.53 -6.52,0.53 l -19.7,-4.57 c 0,0 7.78,3.36 9.1,4 1.32,0.64 5.63,1.81 7.93,3 2.3,1.19 3.4,2.67 3.14,3.88 a 2.3,2.3 0 0 1 -2.49,1.94 l -16.67,-5.73 c 0,0 -7.56,-3 -8.07,-2.9 -0.51,0.1 2.95,3.33 2.95,3.33 l 5.32,2.73 c 0,0 7.68,2.57 7.7,4.7 0.02,2.13 -1.58,2.05 -1.58,2.05 l -14,-4.83 -15.63,-7.92 -11.71,-7.18 c 0,0 2.11,-8.26 1.71,-8.62 -0.4,-0.36 3.88,-9.97 3.88,-9.97 z"
           style="fill:#ffbe9d;stroke-width:0.694089"
           id="path223" /><path
           d="m 431.52,377.27 c 0,-0.16 1.47,-0.55 3.77,-1.38 2.3,-0.83 5.54,-2.31 7.22,-5.58 a 6.76,6.76 0 0 0 0.76,-4.36 l -0.1,-0.5 0.55,-0.07 c 2.43,-0.32 4.69,-0.85 6.22,-1.05 1.53,-0.2 2.51,-0.27 2.51,-0.14 a 12.9,12.9 0 0 1 -2.39,0.71 c -1.55,0.37 -3.59,1 -6.31,1.43 l 0.45,-0.57 a 7.44,7.44 0 0 1 -0.79,5 10.2,10.2 0 0 1 -3.8,4 16.16,16.16 0 0 1 -4.09,1.77 c -2.43,0.72 -3.97,0.86 -4,0.74 z"
           style="fill:#eb996e;stroke-width:0.694089"
           id="path225" /><polyline
           points="216.6 462.58 214.75 393.56 335.79 395.9 352.26 459.98 216.6 462.58"
           style="fill:#263238;stroke-width:0.694089"
           id="polyline227" /><path
           d="m 276.84,200.69 -9.1,8.62 c 0,0 -34,8.45 -40,14.4 -6,5.95 -9,97.62 -8.65,104 0.35,6.38 0,61.43 0,61.43 0,0 -2,21 0,22.2 2,1.2 40.16,1.7 59.19,2.1 19.03,0.4 59.38,1.51 61.76,-0.47 2.38,-1.98 -5.91,-43.08 -5.91,-43.08 l -3.3,-18.95 1,-33.14 7,-45.59 L 344,225 c 0,0 -13.87,-8.32 -20.61,-9.91 -6.74,-1.59 -46.55,-14.4 -46.55,-14.4 z"
           style="fill:#455a64;stroke-width:0.694089"
           id="path229" /><path
           d="M 377.19,333.05 358.7,255.41 a 86.93,86.93 0 0 0 -6.36,-17.86 c -2.87,-5.89 -6.42,-12.31 -8.37,-12.54 -11.47,-1.32 -17.44,33.7 -17.44,33.7 v 44.39 l 10.82,48.08 a 21.27,21.27 0 0 0 14.32,15.61 l 73.39,23.36 8.51,-36.43 z"
           style="fill:#455a64;stroke-width:0.694089"
           id="path231" /><path
           d="m 246.09,216.77 c 0,0 -27.89,3.94 -36.9,25.22 0,0 -27.87,108.48 -23.21,122.77 4.66,14.29 40.69,69.42 40.69,69.42 l 31.59,-16.67 c 0,0 -30.87,-64.07 -30.87,-71.14 0,-7.07 18.7,-129.6 18.7,-129.6 z"
           style="fill:#455a64;stroke-width:0.694089"
           id="path233" /><path
           d="m 258.26,417.51 a 1.88,1.88 0 0 1 -0.18,-0.35 c -0.12,-0.25 -0.27,-0.6 -0.47,-1 -0.41,-0.95 -1,-2.29 -1.76,-4 l -6.38,-14.77 c -5.34,-12.51 -12.71,-29.75 -20.85,-48.79 -0.38,-0.88 -0.75,-1.75 -1.09,-2.56 v -0.06 0 a 26.21,26.21 0 0 1 0.59,-3.75 c 0.26,-1.22 0.53,-2.43 0.82,-3.61 0.56,-2.38 1.16,-4.71 1.75,-7 1.19,-4.57 2.35,-9 3.44,-13.17 2.22,-8.37 4.19,-15.89 5.79,-22.21 1.6,-6.32 2.82,-11.44 3.67,-15 0.4,-1.75 0.72,-3.11 0.94,-4.07 0.11,-0.45 0.2,-0.79 0.26,-1.06 a 1.4,1.4 0 0 1 0.11,-0.35 3.36,3.36 0 0 1 -0.06,0.36 c -0.05,0.27 -0.12,0.62 -0.21,1.07 -0.2,1 -0.48,2.34 -0.85,4.1 -0.78,3.55 -1.94,8.68 -3.51,15 -1.57,6.32 -3.49,13.86 -5.68,22.24 -1.08,4.2 -2.23,8.6 -3.41,13.17 -0.58,2.29 -1.18,4.62 -1.74,7 a 53.93,53.93 0 0 0 -1.39,7.23 v -0.1 c 0.35,0.81 0.72,1.69 1.09,2.56 L 249.86,397.25 256,412 c 0.71,1.74 1.27,3.09 1.67,4 q 0.26,0.66 0.42,1.05 c 0.13,0.33 0.17,0.46 0.17,0.46 z"
           style="fill:#263238;stroke-width:0.694089"
           id="path235" /><path
           d="m 338.67,264 a 2.64,2.64 0 0 1 0,0.64 q 0,0.69 -0.09,1.8 c -0.11,1.63 -0.25,3.87 -0.43,6.62 -0.4,5.59 -0.88,13.31 -1.77,21.82 -0.89,8.51 -2.15,16.16 -3.11,21.68 -0.48,2.76 -0.89,5 -1.19,6.53 -0.14,0.72 -0.26,1.31 -0.36,1.76 a 3.65,3.65 0 0 1 -0.15,0.62 2.7,2.7 0 0 1 0.05,-0.63 c 0.07,-0.47 0.15,-1.06 0.26,-1.79 0.25,-1.61 0.6,-3.83 1,-6.55 0.86,-5.53 2.06,-13.18 2.95,-21.67 0.89,-8.49 1.43,-16.22 1.92,-21.8 0.25,-2.74 0.45,-5 0.6,-6.61 0.07,-0.73 0.14,-1.33 0.19,-1.79 a 3,3 0 0 1 0.13,-0.63 z"
           style="fill:#263238;stroke-width:0.694089"
           id="path237" /><path
           d="m 230.83,432 3.13,5.76 c 0,0 15.51,-5.91 22.89,-15.87 l -2,-2 z"
           style="fill:#ffbe9d;stroke-width:0.694089"
           id="path239" /><path
           d="m 261.43,416.25 a 11.19,11.19 0 0 1 -0.89,1.47 c -0.3,0.47 -0.67,1 -1.15,1.66 -0.48,0.66 -1,1.36 -1.64,2.11 -0.64,0.75 -1.33,1.6 -2.14,2.43 -0.81,0.83 -1.69,1.72 -2.64,2.62 a 55.52,55.52 0 0 1 -6.71,5.26 63.22,63.22 0 0 1 -7.42,4.19 62.17,62.17 0 0 1 -6.45,2.6 c -0.93,0.34 -1.79,0.58 -2.55,0.81 -0.76,0.23 -1.4,0.4 -1.94,0.52 a 10.92,10.92 0 0 1 -1.68,0.36 10,10 0 0 1 1.62,-0.55 c 0.53,-0.16 1.18,-0.35 1.92,-0.61 0.74,-0.26 1.59,-0.52 2.51,-0.88 1.85,-0.66 4,-1.57 6.36,-2.69 a 68.92,68.92 0 0 0 7.35,-4.18 60.55,60.55 0 0 0 6.67,-5.18 c 0.95,-0.88 1.86,-1.72 2.65,-2.57 0.79,-0.85 1.52,-1.63 2.17,-2.37 0.65,-0.74 1.19,-1.45 1.68,-2.05 0.49,-0.6 0.9,-1.15 1.22,-1.6 a 10.19,10.19 0 0 1 1.06,-1.35 z"
           style="fill:#455a64;stroke-width:0.694089"
           id="path241" /><path
           d="m 245.67,255.5 c -0.12,0 0.3,-1.84 0.21,-4.79 a 19.34,19.34 0 0 0 -0.21,-2.4 22.59,22.59 0 0 0 -0.51,-2.72 26.22,26.22 0 0 0 -5.85,-11.11 25.67,25.67 0 0 0 -2,-1.95 18.55,18.55 0 0 0 -1.87,-1.53 c -2.38,-1.74 -4.12,-2.42 -4.07,-2.52 a 5,5 0 0 1 1.21,0.47 8.3,8.3 0 0 1 1.36,0.69 16.87,16.87 0 0 1 1.72,1.06 18.37,18.37 0 0 1 1.94,1.51 22.83,22.83 0 0 1 2,1.95 26.72,26.72 0 0 1 3.71,5.28 27,27 0 0 1 2.26,6 23.26,23.26 0 0 1 0.47,2.77 19.7,19.7 0 0 1 0.15,2.45 15.62,15.62 0 0 1 -0.09,2 10.31,10.31 0 0 1 -0.2,1.51 7.85,7.85 0 0 1 -0.23,1.33 z"
           style="fill:#263238;stroke-width:0.694089"
           id="path243" /><path
           d="m 241.47,285.38 c 0,0.14 -9.24,-2 -20.55,-4.69 -11.31,-2.69 -20.47,-5 -20.44,-5.18 0.03,-0.18 9.24,1.95 20.56,4.68 11.32,2.73 20.46,5.05 20.43,5.19 z"
           style="fill:#ffffff;stroke-width:0.694089"
           id="path245" /><path
           d="m 336.69,279.64 c 0,0.15 -20.72,0.62 -46.27,1.05 -25.55,0.43 -46.28,0.68 -46.29,0.53 -0.01,-0.15 20.72,-0.61 46.28,-1.05 25.56,-0.44 46.28,-0.67 46.28,-0.53 z"
           style="fill:#ffffff;stroke-width:0.694089"
           id="path247" /><path
           d="m 366.33,284.84 a 4.72,4.72 0 0 1 -1.13,0.24 c -0.72,0.13 -1.78,0.28 -3.09,0.46 -2.61,0.36 -6.23,0.79 -10.24,1.19 -4.01,0.4 -7.65,0.67 -10.28,0.83 -1.32,0.08 -2.39,0.13 -3.13,0.15 a 4.19,4.19 0 0 1 -1.15,0 6.32,6.32 0 0 1 1.14,-0.18 l 3.11,-0.32 10.26,-1 10.25,-1 3.11,-0.3 a 4.61,4.61 0 0 1 1.15,-0.07 z"
           style="fill:#ffffff;stroke-width:0.694089"
           id="path249" /><path
           d="m 228.26,341.81 c 0,0.14 -8.91,-1 -19.84,-2.59 -10.93,-1.59 -19.79,-3 -19.77,-3.1 0.02,-0.1 8.9,1 19.84,2.59 10.94,1.59 19.79,2.96 19.77,3.1 z"
           style="fill:#ffffff;stroke-width:0.694089"
           id="path251" /><path
           d="m 329.22,349.9 c 0,0.14 -21.46,1.74 -48,3.57 -26.54,1.83 -48,3.19 -48,3 0,-0.19 21.46,-1.74 48,-3.56 26.54,-1.82 47.99,-3.15 48,-3.01 z"
           style="fill:#ffffff;stroke-width:0.694089"
           id="path253" /><path
           d="m 375.22,334.3 a 10,10 0 0 1 -1.22,1.09 l -3.44,2.84 c -2.9,2.39 -6.9,5.71 -11.25,9.44 -4.35,3.73 -8.25,7.19 -11.05,9.7 l -3.33,3 a 8.64,8.64 0 0 1 -1.26,1 11,11 0 0 1 1.13,-1.19 c 0.74,-0.74 1.84,-1.8 3.21,-3.09 2.74,-2.57 6.6,-6.07 11,-9.81 4.4,-3.74 8.4,-7 11.36,-9.34 1.49,-1.16 2.7,-2.09 3.54,-2.71 a 9.46,9.46 0 0 1 1.31,-0.93 z"
           style="fill:#ffffff;stroke-width:0.694089"
           id="path255" /><path
           d="m 249.78,404.65 a 7.91,7.91 0 0 1 -1.27,0.59 l -3.51,1.46 -11.64,4.77 -11.61,4.87 -3.52,1.46 a 7.53,7.53 0 0 1 -1.32,0.48 7.55,7.55 0 0 1 1.24,-0.66 c 0.81,-0.4 2,-0.95 3.46,-1.62 2.93,-1.34 7,-3.12 11.55,-5 4.55,-1.88 8.69,-3.5 11.71,-4.63 1.51,-0.57 2.73,-1 3.59,-1.31 a 6.61,6.61 0 0 1 1.32,-0.41 z"
           style="fill:#ffffff;stroke-width:0.694089"
           id="path257" /><path
           d="m 417.17,349.35 a 6.86,6.86 0 0 1 -0.19,1.44 c -0.16,0.92 -0.43,2.24 -0.79,3.87 -0.71,3.26 -1.86,7.72 -3.41,12.57 -1.55,4.85 -3.22,9.16 -4.53,12.22 -0.66,1.54 -1.21,2.77 -1.61,3.61 a 7,7 0 0 1 -0.68,1.28 9,9 0 0 1 0.49,-1.36 l 1.46,-3.67 c 1.22,-3.09 2.82,-7.4 4.37,-12.24 1.55,-4.84 2.75,-9.27 3.55,-12.5 0.38,-1.54 0.7,-2.82 0.95,-3.82 a 8.47,8.47 0 0 1 0.39,-1.4 z"
           style="fill:#ffffff;stroke-width:0.694089"
           id="path259" /><path
           d="m 276.4,219.55 a 9.9,9.9 0 0 1 -1.6,0.32 l -4.38,0.75 c -3.7,0.65 -8.8,1.64 -14.37,3 -5.57,1.36 -10.55,2.79 -14.14,3.91 l -4.24,1.33 a 11,11 0 0 1 -1.58,0.45 9.47,9.47 0 0 1 1.51,-0.64 c 1,-0.38 2.41,-0.89 4.2,-1.49 3.56,-1.21 8.54,-2.72 14.13,-4.07 5.59,-1.35 10.7,-2.28 14.43,-2.84 1.86,-0.28 3.37,-0.48 4.41,-0.59 a 9.41,9.41 0 0 1 1.63,-0.13 z"
           style="fill:#ffffff;stroke-width:0.694089"
           id="path261" /><path
           d="m 352.12,124.71 c 7.42,6.39 3.27,16.41 1.78,26.08 -1.49,9.67 0.24,20.29 0.63,30.07 0.21,5.17 1.48,10.51 -0.2,15.4 -1.75,5.12 -6.34,8.62 -9.91,12.7 -3.57,4.08 -6.24,10.13 -3.43,14.75 a 4.9,4.9 0 0 1 -4.66,-0.64 c -1.2,2.15 -4.16,2.79 -6.53,2.09 -2.37,-0.7 -4.29,-2.39 -6.12,-4 -0.28,1.77 -2.43,2.73 -4.19,2.37 a 9.28,9.28 0 0 1 -4.42,-2.92 12.08,12.08 0 0 0 -4.24,-3.23 c -3.75,-1.33 -8.13,1.52 -11.77,-0.1 -5,-2.21 -4.51,-10.85 -9.68,-12.62 -2.43,-0.84 -5.05,0.31 -7.6,0.59 -2.55,0.28 -5.29,-2 -4.94,-4.52 -4.39,1.83 -10,2.7 -14.51,1.07 a 5.17,5.17 0 0 0 1.82,-4.95 16.73,16.73 0 0 1 -9.65,-1.18 9.86,9.86 0 0 0 6.39,-5.07 8.43,8.43 0 0 1 -7.54,-2.69 c 5.57,0.06 9.45,-5.7 10.62,-11.14 1.17,-5.44 0.76,-11.26 3,-16.36 2.41,-5.55 7.57,-9.42 10.7,-14.6 4.37,-7.22 4.49,-16.43 9,-23.56 3,-4.67 5.78,-8.65 10.26,-11.89 5.66,-4.1 8.9,-6.22 15.89,-6.13 5.86,0.08 15.88,1.71 20.88,4.77 8.88,5.44 18.31,11.51 22.25,21.15"
           style="fill:#263238;stroke-width:0.694089"
           id="path263" /><path
           d="m 286.4,167.55 c -0.42,-7.72 -0.79,-15.5 0.12,-23.18 0.91,-7.68 3.2,-15.34 7.67,-21.66 0.68,-0.95 5.94,-7.18 7,-6.77 0.78,0.29 -3.06,6.39 -2.84,7.2 2.11,7.71 1,16 -1.64,23.57 a 104.6,104.6 0 0 1 -10.35,20.84"
           style="fill:#263238;stroke-width:0.694089"
           id="path265" /><path
           d="m 304.88,246.11 c -11.53,-3.33 -33.23,-25.9 -30.15,-37.5 l 18.53,-69.78 c 4.38,-18.91 19,-32.12 37.81,-27.22 l 1.71,0.56 a 34.69,34.69 0 0 1 23.05,41 c -3.89,16.37 -8.39,34.39 -11.27,42.91 -6,17.64 -24.57,14.65 -24.57,14.65 0,0 -1.22,4.14 -2.68,9.41 -3.28,11.83 -10.19,23.43 -12.43,26 z"
           style="fill:#ffbe9d;stroke-width:0.694089"
           id="path267" /><path
           d="m 320,210.75 c 0,0 -11.38,-3 -20.86,-14.3 0,0 1.23,15.12 19.42,19.25 z"
           style="fill:#eb996e;stroke-width:0.694089"
           id="path269" /><path
           d="m 344.89,167.68 a 2.66,2.66 0 0 1 -3.27,1.76 2.54,2.54 0 0 1 -1.87,-3.12 2.68,2.68 0 0 1 3.27,-1.77 2.56,2.56 0 0 1 1.87,3.13 z"
           style="fill:#263238;stroke-width:0.694089"
           id="path271" /><path
           d="m 349.53,159.78 c -0.42,0.23 -1.88,-1.81 -4.6,-2.69 -2.72,-0.88 -5.16,-0.16 -5.35,-0.59 -0.1,-0.19 0.42,-0.68 1.49,-1 a 7.2,7.2 0 0 1 4.41,0.06 7,7 0 0 1 3.53,2.55 c 0.63,0.89 0.72,1.57 0.52,1.67 z"
           style="fill:#263238;stroke-width:0.694089"
           id="path273" /><path
           d="m 320,160.48 a 2.66,2.66 0 0 1 -3.27,1.76 2.54,2.54 0 0 1 -1.87,-3.12 2.68,2.68 0 0 1 3.27,-1.77 2.55,2.55 0 0 1 1.87,3.13 z"
           style="fill:#263238;stroke-width:0.694089"
           id="path275" /><path
           d="m 322.64,151.76 c -0.42,0.23 -1.88,-1.81 -4.6,-2.69 -2.72,-0.88 -5.16,-0.16 -5.35,-0.59 -0.09,-0.2 0.41,-0.69 1.49,-1 a 7.32,7.32 0 0 1 4.42,0.07 7,7 0 0 1 3.53,2.55 c 0.62,0.9 0.71,1.56 0.51,1.66 z"
           style="fill:#263238;stroke-width:0.694089"
           id="path277" /><path
           d="m 325.62,175.84 c 0,-0.16 1.83,0.1 4.68,0.64 0.72,0.15 1.42,0.23 1.69,-0.21 a 3.72,3.72 0 0 0 0.21,-2.21 c -0.11,-1.9 -0.22,-3.88 -0.34,-6 -0.41,-8.46 -0.47,-15.33 -0.13,-15.34 0.34,-0.01 0.95,6.83 1.36,15.29 q 0.14,3.12 0.25,6 a 4.29,4.29 0 0 1 -0.53,2.84 1.84,1.84 0 0 1 -1.47,0.65 5.11,5.11 0 0 1 -1.24,-0.22 c -2.8,-0.74 -4.52,-1.28 -4.48,-1.44 z"
           style="fill:#263238;stroke-width:0.694089"
           id="path279" /><path
           d="m 325.7,141.51 c -0.6,0.57 -3,-1 -6.19,-2.13 -3.19,-1.13 -6,-1.48 -6.13,-2.3 0,-0.39 0.71,-0.84 2,-1 a 11.4,11.4 0 0 1 9.38,3.38 c 0.92,0.95 1.24,1.77 0.94,2.05 z"
           style="fill:#263238;stroke-width:0.694089"
           id="path281" /><path
           d="m 351,153.21 c -0.76,0.44 -2.79,-0.89 -5.46,-1.74 -2.67,-0.85 -5.07,-1.11 -5.39,-1.92 -0.13,-0.38 0.41,-0.89 1.59,-1.18 a 9,9 0 0 1 4.76,0.36 8.82,8.82 0 0 1 4,2.59 c 0.68,0.93 0.79,1.68 0.5,1.89 z"
           style="fill:#263238;stroke-width:0.694089"
           id="path283" /><path
           d="m 290.45,152.41 c -0.26,-0.23 -11,-7.54 -14.54,4.69 -3.54,12.23 9.47,13.27 9.59,12.92 0.12,-0.35 4.95,-17.61 4.95,-17.61 z"
           style="fill:#ffbe9d;stroke-width:0.694089"
           id="path285" /><path
           d="m 283.1,164.3 c 0,-0.05 -0.25,0.09 -0.66,0.15 a 2.18,2.18 0 0 1 -1.6,-0.43 c -1.16,-0.84 -1.65,-3.21 -1.07,-5.43 a 7.22,7.22 0 0 1 1.48,-2.88 2.53,2.53 0 0 1 2.07,-1.17 1.13,1.13 0 0 1 1.09,0.94 c 0.07,0.39 -0.08,0.62 0,0.66 0.08,0.04 0.32,-0.13 0.37,-0.67 a 1.38,1.38 0 0 0 -0.26,-0.9 1.7,1.7 0 0 0 -1.09,-0.66 3.16,3.16 0 0 0 -2.78,1.26 7.55,7.55 0 0 0 -1.72,3.19 c -0.64,2.49 0,5.16 1.58,6.19 a 2.39,2.39 0 0 0 2,0.24 c 0.49,-0.2 0.63,-0.45 0.59,-0.49 z"
           style="fill:#eb996e;stroke-width:0.694089"
           id="path287" /><path
           d="m 353.58,130.64 c 2.3,-0.54 -1.86,-8.63 -6.12,-12.21 C 341,113 330.34,107.81 323,107.83 c -8.83,0 -16.77,2.2 -23,8.5 -6.23,6.3 -10.17,14.55 -12.31,23.12 -0.66,2.61 -1.15,5.39 -0.37,8 0.95,3.19 3.76,5.82 2.57,9.52 a 5.34,5.34 0 0 0 0.22,4.1 c 1.58,3 5,1.55 6.85,-0.35 4,-4.05 5.94,-9.7 7.72,-15.14 1.26,-3.86 2.54,-7.82 2.49,-11.88 0,-2.21 -0.45,-4.41 -0.36,-6.63 a 7.67,7.67 0 0 1 2.59,-5.88 8.26,8.26 0 0 1 1.27,-0.72 13.27,13.27 0 0 1 13.37,1.13 c 6.22,4.38 17,11.33 20.73,9.85 5.38,-2.13 7.06,-4 7.06,-4 z"
           style="fill:#263238;stroke-width:0.694089"
           id="path289" /><path
           d="m 317.64,175.2 c -0.18,0 -0.46,0.62 -0.52,1.75 a 7.1,7.1 0 0 0 1.2,4.22 11.7,11.7 0 0 0 3,3.07 c 0.88,0.63 1.5,0.92 1.62,0.78 0.12,-0.14 -0.28,-0.69 -1,-1.48 a 27.08,27.08 0 0 1 -2.51,-3.1 c -1.69,-2.51 -1.37,-5.21 -1.79,-5.24 z"
           style="fill:#263238;stroke-width:0.694089"
           id="path291" /><path
           d="m 290.2,154.09 c 0,0.25 0,0.5 0,0.78 0.01,0 0,-0.28 0,-0.78 z"
           style="fill:#ff725e;stroke-width:0.694089"
           id="path293" /><path
           d="m 286.94,150.63 c 0,0 3,-1.76 3.26,3.46 -0.06,-6.74 1.15,-55.4 47.82,-42.42 0,0 -15,-9 -28,-5 -0.02,-0.03 -24.58,3.56 -23.08,43.96 z"
           style="fill:#455a64;stroke-width:0.694089"
           id="path295" /><path
           d="m 317.47,201.89 c 0.1,0.19 1.41,-0.37 2.62,-1.6 1.21,-1.23 1.77,-2.53 1.58,-2.63 -0.19,-0.1 -1,0.94 -2.14,2.07 -1.14,1.13 -2.18,1.97 -2.06,2.16 z"
           style="fill:#263238;stroke-width:0.694089"
           id="path297" /><path
           d="m 314.94,200.67 c 0.16,0.15 1.23,-0.79 2.39,-2.1 1.16,-1.31 2,-2.48 1.8,-2.63 -0.2,-0.15 -1.24,0.8 -2.4,2.1 -1.16,1.3 -1.96,2.49 -1.79,2.63 z"
           style="fill:#263238;stroke-width:0.694089"
           id="path299" /><path
           d="m 313.4,199.07 c 0.21,0.07 0.79,-1.08 1.31,-2.57 0.52,-1.49 0.76,-2.75 0.55,-2.82 -0.21,-0.07 -0.79,1.08 -1.3,2.57 -0.51,1.49 -0.77,2.75 -0.56,2.82 z"
           style="fill:#263238;stroke-width:0.694089"
           id="path301" /><path
           d="m 311.07,198.61 c 0.22,-0.05 0,-1.52 0.31,-3.27 0.31,-1.75 0.95,-3.07 0.75,-3.2 -0.2,-0.13 -1.22,1.13 -1.53,3.07 -0.31,1.94 0.27,3.48 0.47,3.4 z"
           style="fill:#263238;stroke-width:0.694089"
           id="path303" /><path
           d="m 307.79,196.66 c 0.23,0 0.14,-1.47 0.35,-3.19 0.21,-1.72 0.63,-3.09 0.42,-3.18 -0.21,-0.09 -1,1.23 -1.21,3.08 -0.21,1.85 0.24,3.33 0.44,3.29 z"
           style="fill:#263238;stroke-width:0.694089"
           id="path305" /><path
           d="m 323.41,355.59 c 0,0 -0.12,0.12 -0.38,0.31 l -1.14,0.82 c -1,0.7 -2.46,1.68 -4.28,2.87 -3.63,2.39 -8.73,5.59 -14.47,8.93 -5.74,3.34 -11.05,6.17 -14.93,8.15 -1.93,1 -3.51,1.77 -4.61,2.29 l -1.27,0.59 c -0.3,0.13 -0.45,0.19 -0.46,0.17 a 2.06,2.06 0 0 1 0.41,-0.26 l 1.23,-0.68 4.53,-2.44 c 3.83,-2 9.1,-4.94 14.84,-8.27 5.74,-3.33 10.85,-6.48 14.53,-8.79 l 4.37,-2.73 1.19,-0.73 a 1.83,1.83 0 0 1 0.44,-0.23 z"
           style="fill:#263238;stroke-width:0.694089"
           id="path307" /><path
           d="m 377.15,332.93 a 37,37 0 0 0 -12.45,11.72 8.83,8.83 0 0 1 1.21,-2.25 26.79,26.79 0 0 1 4,-4.72 27.4,27.4 0 0 1 4.95,-3.68 8.87,8.87 0 0 1 2.29,-1.07 z"
           style="fill:#263238;stroke-width:0.694089"
           id="path309" /></g><g
         id="freepik--character-3--inject-18"
         style="stroke-width:0.694089"><path
           d="m 376.13,319.94 c 0,0 -35.53,4.21 -48.67,14.71 a 45,45 0 0 0 -5.77,5.62 60.22,60.22 0 0 0 -14.29,34.15 l -4.76,52.25 0.38,8.63 a 25.27,25.27 0 0 0 25.16,24.15 l 146.82,1 c 0,0 19.28,-21.52 14.23,-54.9 -1.19,-7.85 -3.09,-34.77 -10.53,-51.34 -3.93,-8.76 -9.95,-19.58 -25.84,-23.8 l -37.09,-10.49 z"
           style="fill:#263238;stroke-width:0.694089"
           id="path312" /><path
           d="m 342.83,362.44 a 5.73,5.73 0 0 1 -0.3,-1.17 c -0.16,-0.75 -0.41,-1.84 -0.74,-3.18 a 68.65,68.65 0 0 0 -3.44,-10.2 67.57,67.57 0 0 0 -5.06,-9.49 c -0.75,-1.17 -1.37,-2.09 -1.82,-2.73 a 6.62,6.62 0 0 1 -0.64,-1 5.21,5.21 0 0 1 0.81,0.9 c 0.49,0.6 1.16,1.5 1.95,2.64 a 56.73,56.73 0 0 1 5.24,9.5 57.4,57.4 0 0 1 3.32,10.29 c 0.29,1.36 0.48,2.47 0.58,3.24 a 4.91,4.91 0 0 1 0.1,1.2 z"
           style="fill:#455a64;stroke-width:0.694089"
           id="path314" /><path
           d="m 349,422 c -0.15,0 -1.72,-11.4 -3.51,-25.51 -1.79,-14.11 -3.13,-25.56 -3,-25.57 0.13,-0.01 1.71,11.4 3.51,25.51 1.8,14.11 3.14,25.57 3,25.57 z"
           style="fill:#455a64;stroke-width:0.694089"
           id="path316" /><path
           d="m 342.5,366.93 a 11.31,11.31 0 0 1 -2.5,-1.06 45.41,45.41 0 0 1 -10.69,-7.53 10.62,10.62 0 0 1 -1.84,-2 20.31,20.31 0 0 1 2.08,1.73 c 1.27,1.08 3.05,2.53 5.13,4 2.08,1.47 4,2.65 5.49,3.47 a 18.38,18.38 0 0 1 2.33,1.39 z"
           style="fill:#455a64;stroke-width:0.694089"
           id="path318" /><path
           d="m 437.64,376.6 a 10.76,10.76 0 0 1 0,-1.79 19.69,19.69 0 0 1 0.14,-2.09 c 0.09,-0.81 0.15,-1.74 0.35,-2.75 a 32.23,32.23 0 0 1 0.67,-3.3 c 0.25,-1.19 0.65,-2.42 1,-3.72 a 46.58,46.58 0 0 1 8.65,-15.36 c 0.91,-1 1.75,-2 2.63,-2.83 a 33.33,33.33 0 0 1 2.48,-2.28 c 0.76,-0.7 1.52,-1.23 2.17,-1.73 a 18.05,18.05 0 0 1 1.71,-1.2 12.09,12.09 0 0 1 1.53,-0.92 11.61,11.61 0 0 1 -1.41,1.08 c -0.47,0.33 -1,0.74 -1.65,1.27 -0.65,0.53 -1.37,1.07 -2.11,1.77 -0.74,0.7 -1.59,1.44 -2.41,2.31 -0.82,0.87 -1.68,1.83 -2.57,2.84 a 48.59,48.59 0 0 0 -8.56,15.21 c -0.41,1.28 -0.83,2.49 -1.09,3.66 -0.26,1.17 -0.54,2.26 -0.73,3.26 -0.19,1 -0.3,1.92 -0.42,2.73 -0.12,0.81 -0.19,1.49 -0.23,2.07 a 13.12,13.12 0 0 1 -0.15,1.77 z"
           style="fill:#455a64;stroke-width:0.694089"
           id="path320" /><path
           d="m 423,436.61 a 5.41,5.41 0 0 1 -0.11,-1.84 5.55,5.55 0 0 1 2.63,-4.3 v 0 A 45.38,45.38 0 0 1 440.54,420 l -0.15,0.21 c 0.2,-1.88 0.41,-3.83 0.56,-5.84 a 172.13,172.13 0 0 0 0.3,-22 c -0.13,-2.81 -0.33,-5.09 -0.44,-6.66 -0.06,-0.74 -0.11,-1.34 -0.15,-1.81 a 2.82,2.82 0 0 1 0,-0.64 2.66,2.66 0 0 1 0.12,0.63 c 0.07,0.46 0.15,1.06 0.25,1.8 0.17,1.57 0.43,3.84 0.61,6.66 a 154.76,154.76 0 0 1 -0.15,22.07 c -0.15,2 -0.36,4 -0.57,5.86 v 0.15 l -0.14,0.06 a 46.49,46.49 0 0 0 -15,10.23 v 0 0 a 5.31,5.31 0 0 0 -1.95,2 5.46,5.46 0 0 0 -0.65,2 c -0.25,1.28 -0.11,1.88 -0.18,1.89 z"
           style="fill:#455a64;stroke-width:0.694089"
           id="path322" /><path
           d="m 464.9,432.38 c -0.09,0.05 -0.85,-1.39 -2.52,-3.39 a 25.87,25.87 0 0 0 -7.84,-6.32 25.12,25.12 0 0 0 -5.18,-2 19.67,19.67 0 0 0 -4.5,-0.59 c -2.6,0 -4.21,0.3 -4.22,0.2 a 4.64,4.64 0 0 1 1.11,-0.27 20.46,20.46 0 0 1 3.11,-0.3 18.07,18.07 0 0 1 4.61,0.5 23.75,23.75 0 0 1 5.31,2 24.36,24.36 0 0 1 7.89,6.55 20.16,20.16 0 0 1 1.73,2.59 4.79,4.79 0 0 1 0.5,1.03 z"
           style="fill:#455a64;stroke-width:0.694089"
           id="path324" /><path
           d="m 464.18,418.71 c 0,0.09 -1.22,-0.47 -3.25,-1 a 24.72,24.72 0 0 0 -3.6,-0.62 34.39,34.39 0 0 0 -4.49,-0.12 40.79,40.79 0 0 0 -8.06,1.23 c -2,0.53 -3.25,1 -3.28,0.89 a 3.24,3.24 0 0 1 0.82,-0.4 22.39,22.39 0 0 1 2.36,-0.84 33.72,33.72 0 0 1 8.14,-1.4 31.9,31.9 0 0 1 4.56,0.16 22.71,22.71 0 0 1 3.65,0.74 14,14 0 0 1 1.35,0.46 7.19,7.19 0 0 1 1,0.42 3.13,3.13 0 0 1 0.8,0.48 z"
           style="fill:#455a64;stroke-width:0.694089"
           id="path326" /><path
           d="m 436.35,260.7 c -2.93,-12.44 -8.16,-25.15 -18.48,-32.71 -9.18,-6.73 -22.58,-9.29 -33.94,-8.45 -5.59,0.42 -11.83,3.21 -16.62,6.13 -6.56,4 -9.15,11.77 -12.15,18.85 -6,14.19 -4.57,33.08 0,38.2 l 59.39,28.94 c 10.17,-5.72 21.18,-13.42 23.55,-24.83 1.59,-7.78 0.07,-18.4 -1.75,-26.13 z"
           style="fill:#ff725e;stroke-width:0.694089"
           id="path328" /><path
           d="M 413.86,238.63 376.76,229 c -11.9,-1.34 -19.91,13.27 -20.75,25.21 -0.92,13.26 -1.53,29.5 0,39.41 3,19.93 18.28,24.66 18.28,24.66 0,0 0,17.32 0.11,23.23 l 17.31,52.72 24.61,-52.72 3.79,-95.71 a 7,7 0 0 0 -6.25,-7.17 z"
           style="fill:#ffbe9d;stroke-width:0.694089"
           id="path330" /><path
           d="m 362.64,270.26 a 2.56,2.56 0 0 0 2.45,2.59 2.44,2.44 0 0 0 2.64,-2.28 2.55,2.55 0 0 0 -2.44,-2.6 2.45,2.45 0 0 0 -2.65,2.29 z"
           style="fill:#263238;stroke-width:0.694089"
           id="path332" /><path
           d="m 359.48,262.66 c 0.31,0.33 2.26,-1.09 5,-1.06 2.74,0.03 4.76,1.41 5.06,1.08 0.14,-0.15 -0.17,-0.75 -1.05,-1.4 a 7,7 0 0 0 -4,-1.27 6.75,6.75 0 0 0 -4,1.25 c -0.88,0.65 -1.17,1.25 -1.01,1.4 z"
           style="fill:#263238;stroke-width:0.694089"
           id="path334" /><path
           d="m 387.58,270.26 a 2.55,2.55 0 0 0 2.44,2.59 2.45,2.45 0 0 0 2.65,-2.28 2.56,2.56 0 0 0 -2.44,-2.6 2.44,2.44 0 0 0 -2.65,2.29 z"
           style="fill:#263238;stroke-width:0.694089"
           id="path336" /><path
           d="m 386.49,263.35 c 0.31,0.34 2.26,-1.08 5,-1.05 2.74,0.03 4.76,1.41 5.06,1.08 0.14,-0.15 -0.17,-0.75 -1.05,-1.4 a 7.06,7.06 0 0 0 -4,-1.28 6.75,6.75 0 0 0 -4,1.26 c -0.88,0.64 -1.17,1.24 -1.01,1.39 z"
           style="fill:#263238;stroke-width:0.694089"
           id="path338" /><path
           d="m 376.37,283.67 c 0,-0.16 -1.69,-0.47 -4.45,-0.84 -0.71,-0.08 -1.37,-0.22 -1.48,-0.7 a 3.49,3.49 0 0 1 0.48,-2.08 l 2.11,-5.33 c 2.93,-7.58 5.06,-13.83 4.76,-13.94 -0.3,-0.11 -2.94,5.94 -5.87,13.53 -0.71,1.87 -1.38,3.65 -2,5.36 a 4,4 0 0 0 -0.39,2.75 1.75,1.75 0 0 0 1.15,1 4.25,4.25 0 0 0 1.19,0.18 c 2.76,0.2 4.49,0.22 4.5,0.07 z"
           style="fill:#263238;stroke-width:0.694089"
           id="path340" /><path
           d="m 374.22,318.41 0.11,5 c 19.92,2 26.6,-11.89 26.6,-11.89 a 50.58,50.58 0 0 1 -26.71,6.89 z"
           style="fill:#eb996e;stroke-width:0.694089"
           id="path342" /><path
           d="m 385.42,288.86 a 4.42,4.42 0 0 0 -3.66,-2 5.75,5.75 0 0 0 -5.25,2.56 3.56,3.56 0 0 0 -0.25,2.57 c 0.19,0.44 0,0.23 0.38,0.53 a 10,10 0 0 0 4.09,2.57 4.31,4.31 0 0 0 4.56,-1.64 4.38,4.38 0 0 0 0.13,-4.59 z"
           style="fill:#eb996e;stroke-width:0.694089"
           id="path344" /><path
           d="m 384.45,285.62 c -0.45,0 -0.48,3 -3,5.05 -2.52,2.05 -5.74,1.76 -5.77,2.17 0,0.19 0.71,0.59 2.05,0.63 a 7.37,7.37 0 0 0 4.81,-1.64 6.45,6.45 0 0 0 2.36,-4.24 c 0.1,-1.24 -0.25,-1.98 -0.45,-1.97 z"
           style="fill:#263238;stroke-width:0.694089"
           id="path346" /><path
           d="m 385.25,254.55 c 0.27,0.75 3,0.41 6.24,0.82 3.24,0.41 5.82,1.31 6.25,0.64 0.2,-0.32 -0.25,-1 -1.3,-1.75 a 10.91,10.91 0 0 0 -9.51,-1.12 c -1.19,0.47 -1.79,1.05 -1.68,1.41 z"
           style="fill:#ff725e;stroke-width:0.694089"
           id="path348" /><path
           d="m 360.54,253.17 c 0.48,0.62 2.38,0 4.65,0 2.27,0 4.21,0.45 4.65,-0.2 0.2,-0.31 -0.1,-0.94 -0.94,-1.54 a 6.72,6.72 0 0 0 -7.49,0.18 c -0.81,0.61 -1.08,1.25 -0.87,1.56 z"
           style="fill:#ff725e;stroke-width:0.694089"
           id="path350" /><path
           d="m 414.72,270 c 0.27,-0.12 11.08,-3.56 11,7.56 -0.08,11.12 -11.24,8.72 -11.26,8.4 -0.02,-0.32 0.26,-15.96 0.26,-15.96 z"
           style="fill:#ffbe9d;stroke-width:0.694089"
           id="path352" /><path
           d="m 417.89,281.79 c 0,0 0.19,0.14 0.51,0.29 a 1.9,1.9 0 0 0 1.45,0 c 1.18,-0.42 2.18,-2.27 2.26,-4.27 a 6.51,6.51 0 0 0 -0.52,-2.78 2.21,2.21 0 0 0 -1.45,-1.5 1,1 0 0 0 -1.14,0.52 c -0.15,0.31 -0.09,0.53 -0.14,0.55 -0.05,0.02 -0.24,-0.19 -0.15,-0.65 a 1.22,1.22 0 0 1 0.45,-0.69 1.46,1.46 0 0 1 1.07,-0.27 2.71,2.71 0 0 1 2,1.74 6.63,6.63 0 0 1 0.64,3.1 c -0.09,2.24 -1.26,4.33 -2.87,4.78 a 2.13,2.13 0 0 1 -1.77,-0.31 c -0.33,-0.24 -0.38,-0.49 -0.34,-0.51 z"
           style="fill:#eb996e;stroke-width:0.694089"
           id="path354" /><path
           d="m 421.56,285.5 c 0.05,-0.06 0.48,0.46 0.41,1.46 a 2.05,2.05 0 0 1 -0.78,1.56 2.32,2.32 0 0 1 -2.13,0.15 2.24,2.24 0 0 1 -1.48,-1.54 2.36,2.36 0 0 1 0.3,-1.71 c 0.55,-0.86 1.25,-0.94 1.25,-0.88 0,0.06 -0.53,0.3 -0.9,1.07 a 2,2 0 0 0 -0.15,1.39 1.79,1.79 0 0 0 1.18,1.14 1.84,1.84 0 0 0 1.63,-0.05 1.78,1.78 0 0 0 0.69,-1.18 6.6,6.6 0 0 0 -0.02,-1.41 z"
           style="fill:#263238;stroke-width:0.694089"
           id="path356" /><path
           d="m 355.12,257.34 c 1.5,-3.22 4.41,-5.57 7.5,-7.33 3.09,-1.76 6.43,-3 9.5,-4.82 a 33.4,33.4 0 0 0 14.94,-18.68 c -5.47,-2.83 -12.28,-2.5 -17.8,0.23 A 27.2,27.2 0 0 0 357,240 a 42.71,42.71 0 0 0 -3.39,18"
           style="fill:#ff725e;stroke-width:0.694089"
           id="path358" /><path
           d="m 417.27,235.66 c -8.22,-7.81 -23.75,-12.12 -34.46,-8.46 1.59,9.35 8.65,19.86 14.86,27 6.21,7.14 10,19.87 23.63,15.57 0.93,-0.29 2,0.56 2.85,0.06 a 3.42,3.42 0 0 0 1.31,-2.06 31.86,31.86 0 0 0 -8.19,-32.11 z"
           style="fill:#ff725e;stroke-width:0.694089"
           id="path360" /><path
           d="m 355.74,270.85 a 4.14,4.14 0 0 1 -1.95,-0.11 7.65,7.65 0 0 1 -4.27,-3.15 11.61,11.61 0 0 1 -1.69,-7.68 28.85,28.85 0 0 1 0.78,-4.61 c 0.36,-1.59 0.86,-3.19 1.4,-4.82 a 49.27,49.27 0 0 1 8.66,-15.21 44.69,44.69 0 0 1 3.66,-3.86 l 1.08,-0.95 a 2,2 0 0 1 0.41,-0.31 13.14,13.14 0 0 1 -1.34,1.41 c -0.85,0.92 -2.12,2.21 -3.5,4 a 51.34,51.34 0 0 0 -8.43,15.14 48.64,48.64 0 0 0 -1.4,4.75 28.61,28.61 0 0 0 -0.8,4.53 11.38,11.38 0 0 0 1.5,7.42 7.56,7.56 0 0 0 4,3.15 10.3,10.3 0 0 0 1.89,0.3 z"
           style="fill:#ff725e;stroke-width:0.694089"
           id="path362" /><path
           d="m 450,236.91 c 0,-5.22 -1.47,-10.62 -5,-14.44 -4.93,-5.3 -13.56,-6.49 -20,-3.12 -6.44,3.37 -10.28,10.8 -9.85,18 A 22.39,22.39 0 0 0 426.33,255 l 4.59,-0.52 c 4.6,2.43 10.63,0.71 14.17,-3.09 3.54,-3.8 4.91,-9.28 4.91,-14.48 z"
           style="fill:#ff725e;stroke-width:0.694089"
           id="path364" /><path
           d="m 421.94,233.85 c 0,0 -0.06,0.14 -0.23,0.37 a 10.65,10.65 0 0 1 -0.77,1 19.73,19.73 0 0 1 -3.37,3.18 21.87,21.87 0 0 1 -28.26,-1.55 20,20 0 0 1 -3,-3.53 c -0.31,-0.45 -0.5,-0.83 -0.65,-1.08 -0.15,-0.25 -0.21,-0.39 -0.19,-0.4 a 30.88,30.88 0 0 0 4.1,4.74 22.62,22.62 0 0 0 5.64,3.73 21.18,21.18 0 0 0 16.14,0.88 22.77,22.77 0 0 0 6,-3.08 30,30 0 0 0 4.59,-4.26 z"
           style="fill:#ffffff;stroke-width:0.694089"
           id="path366" /><path
           d="m 427.28,249 a 2.47,2.47 0 0 1 -0.37,0.37 11.54,11.54 0 0 1 -1.17,1 17.59,17.59 0 0 1 -4.95,2.6 22.36,22.36 0 0 1 -8.23,1.11 25.33,25.33 0 0 1 -9.84,-2.54 32,32 0 0 1 -8.24,-6 42.13,42.13 0 0 1 -5.28,-6.39 49.12,49.12 0 0 1 -2.89,-4.79 c -0.32,-0.58 -0.53,-1 -0.69,-1.36 a 2.85,2.85 0 0 1 -0.2,-0.49 2.29,2.29 0 0 1 0.3,0.45 l 0.76,1.3 c 0.67,1.14 1.66,2.76 3,4.67 a 44.25,44.25 0 0 0 5.32,6.27 32.69,32.69 0 0 0 8.13,5.84 25.39,25.39 0 0 0 9.64,2.52 22.45,22.45 0 0 0 8.08,-1 18.85,18.85 0 0 0 5,-2.42 c 1.05,-0.72 1.59,-1.2 1.63,-1.14 z"
           style="fill:#ffffff;stroke-width:0.694089"
           id="path368" /><path
           d="m 445.51,232 c 0,0 -0.14,0.26 -0.47,0.68 a 13.11,13.11 0 0 1 -1.57,1.63 17.86,17.86 0 0 1 -2.7,2 20.71,20.71 0 0 1 -3.72,1.76 21.69,21.69 0 0 1 -4,0.93 18.71,18.71 0 0 1 -3.36,0.1 14.15,14.15 0 0 1 -2.24,-0.31 2.52,2.52 0 0 1 -0.8,-0.24 c 0,-0.09 1.18,0.15 3.05,0.18 A 20.77,20.77 0 0 0 443.23,234 c 1.45,-1.15 2.21,-2 2.28,-2 z"
           style="fill:#ffffff;stroke-width:0.694089"
           id="path370" /><path
           d="m 449.65,239 a 1.65,1.65 0 0 1 0.14,0.9 4.15,4.15 0 0 1 -0.86,2.33 7.3,7.3 0 0 1 -2.93,2.23 22,22 0 0 1 -4.24,1.41 22.77,22.77 0 0 1 -8.07,0.35 21.12,21.12 0 0 1 -2.41,-0.49 2.7,2.7 0 0 1 -0.84,-0.32 c 0,-0.09 1.25,0.25 3.29,0.44 a 25.31,25.31 0 0 0 7.92,-0.49 c 3,-0.71 5.76,-1.74 7,-3.35 a 4.43,4.43 0 0 0 0.95,-2.13 c 0.07,-0.57 0.01,-0.88 0.05,-0.88 z"
           style="fill:#ffffff;stroke-width:0.694089"
           id="path372" /><path
           d="m 424.52,442.18 a 1.84,1.84 0 0 1 -0.55,0.05 c -0.36,0 -0.9,0 -1.58,0 a 36.18,36.18 0 0 1 -5.8,-0.56 39,39 0 0 1 -29.13,-22.85 36.16,36.16 0 0 1 -1.92,-5.5 c -0.19,-0.66 -0.27,-1.19 -0.35,-1.54 a 3.76,3.76 0 0 1 -0.09,-0.55 17.43,17.43 0 0 1 0.63,2 43.26,43.26 0 0 0 2.07,5.41 39.84,39.84 0 0 0 28.86,22.64 42.22,42.22 0 0 0 5.73,0.72 c 1.37,0.13 2.13,0.14 2.13,0.18 z"
           style="fill:#455a64;stroke-width:0.694089"
           id="path374" /><path
           d="m 377.7,439 a 2.24,2.24 0 0 1 -0.44,-0.24 l -1.21,-0.78 -4.39,-2.98 a 127.32,127.32 0 0 0 -15,-8.76 58.21,58.21 0 0 0 -16.41,-5.24 47.21,47.21 0 0 0 -5.23,-0.48 18.63,18.63 0 0 1 -1.93,-0.08 1.65,1.65 0 0 1 0.5,-0.06 c 0.32,0 0.81,-0.07 1.43,-0.06 a 36.52,36.52 0 0 1 5.28,0.32 54.8,54.8 0 0 1 16.62,5.15 112.73,112.73 0 0 1 14.95,8.93 c 1.83,1.26 3.29,2.31 4.3,3.05 l 1.15,0.86 c 0.26,0.19 0.39,0.3 0.38,0.37 z"
           style="fill:#455a64;stroke-width:0.694089"
           id="path376" /><polygon
           points="359.71,439.81 365,459.92 455.98,460.34 427.98,436.36 "
           style="fill:#ffbe9d;stroke-width:0.694089"
           id="polygon378" /><path
           d="m 362.88,439.65 c 0,0 -22.06,-11 -24.79,-11.11 -2.09,-0.07 -14.21,2 -19.79,2.95 a 4,4 0 0 0 -3.42,4.49 3.4,3.4 0 0 0 3.18,2.75 4.29,4.29 0 0 0 -2.34,4.43 c 0.44,3.17 4.36,3.25 4.36,3.25 a 5.28,5.28 0 0 0 -0.47,0.57 3.8,3.8 0 0 0 2.81,6 l 1.78,0.13 c 0,0 -2.18,1.33 -1.82,3.49 0.7,4.14 10.16,3.52 10.16,3.52 L 365,459.89 Z"
           style="fill:#ffbe9d;stroke-width:0.694089"
           id="path380" /><path
           d="m 319.7,426.25 c 0.31,1.35 1.08,4.22 3.61,5.18 L 336.1,429 c 0,0 -10.09,-1.85 -11.7,-3.27 a 11.2,11.2 0 0 0 -2.11,-1.52 1.84,1.84 0 0 0 -2.59,2.04 z"
           style="fill:#ffbe9d;stroke-width:0.694089"
           id="path382" /><path
           d="m 330,429.77 c 0,0.22 -2.56,0.87 -5.82,1.31 -3.26,0.44 -5.88,0.71 -5.92,0.47 -0.04,-0.24 2.55,-0.87 5.81,-1.31 3.26,-0.44 5.93,-0.71 5.93,-0.47 z"
           style="fill:#eb996e;stroke-width:0.694089"
           id="path384" /><path
           d="m 328.23,437.39 c 0.06,0.22 -2.15,1 -5,1.29 -2.85,0.29 -5.17,0.11 -5.16,-0.11 0.01,-0.22 2.28,-0.4 5.06,-0.73 2.78,-0.33 5.04,-0.68 5.1,-0.45 z"
           style="fill:#eb996e;stroke-width:0.694089"
           id="path386" /><path
           d="m 334.63,435.47 c 0.21,0.09 0.07,0.83 -0.58,1.41 -0.65,0.58 -1.4,0.63 -1.47,0.42 -0.07,-0.21 0.4,-0.59 0.91,-1.05 0.51,-0.46 0.93,-0.88 1.14,-0.78 z"
           style="fill:#eb996e;stroke-width:0.694089"
           id="path388" /><path
           d="m 330.89,445.32 c 0,0.23 -2.45,0.72 -5.51,1.08 -3.06,0.36 -5.57,0.47 -5.61,0.24 -0.04,-0.23 2.43,-0.71 5.51,-1.07 3.08,-0.36 5.59,-0.48 5.61,-0.25 z"
           style="fill:#eb996e;stroke-width:0.694089"
           id="path390" /><path
           d="m 337.71,440.76 c 0.1,0 0.34,0.19 0.48,0.68 a 2.68,2.68 0 0 1 -1.81,3.21 c -0.5,0.14 -0.82,0.05 -0.83,-0.06 -0.01,-0.11 1.05,-0.54 1.64,-1.6 0.59,-1.06 0.31,-2.14 0.52,-2.23 z"
           style="fill:#eb996e;stroke-width:0.694089"
           id="path392" /><path
           d="m 334,453 c 0,0.23 -2.24,0.48 -5,0.56 -2.76,0.08 -5.05,-0.05 -5.05,-0.28 0,-0.23 2.24,-0.48 5,-0.56 2.76,-0.08 5.05,0.06 5.05,0.28 z"
           style="fill:#eb996e;stroke-width:0.694089"
           id="path394" /><path
           d="m 340.61,447.86 c 0.1,0 0.3,0.22 0.36,0.73 a 3.09,3.09 0 0 1 -0.42,1.85 c -0.77,1.28 -1.76,1.85 -1.9,1.72 -0.14,-0.13 0.53,-1.06 1.16,-2.13 0.63,-1.07 0.59,-2.1 0.8,-2.17 z"
           style="fill:#eb996e;stroke-width:0.694089"
           id="path396" /></g><g
         id="freepik--character-1--inject-18"
         style="stroke-width:0.694089"><path
           d="m 275.75,449 c -4.48,-2.13 -19.43,-8 -19.43,-8 l -7.32,-50 -29.78,4.47 c 0,0 17.33,63.73 22,64.17 4.67,0.44 31.23,0 31.23,0 l 8.66,-0.13 c 0,0 -2.22,-9.03 -5.36,-10.51 z"
           style="fill:#9b6e65;stroke-width:0.694089"
           id="path399" /><path
           d="m 255,458.08 a 3.33,3.33 0 0 1 -1.49,0.55 8.66,8.66 0 0 1 -7.25,-1.93 3.46,3.46 0 0 1 -1,-1.22 c 0.07,-0.06 0.48,0.37 1.25,0.93 a 10.11,10.11 0 0 0 3.31,1.57 10.3,10.3 0 0 0 3.65,0.29 9.62,9.62 0 0 1 1.53,-0.19 z"
           style="fill:#704c45;stroke-width:0.694089"
           id="path401" /><path
           d="m 272.22,459.49 c -0.07,0.05 -0.69,-1 -1.83,-2.52 a 12.36,12.36 0 0 0 -2.3,-2.37 12.67,12.67 0 0 0 -3.63,-1.78 35.7,35.7 0 0 1 -6.82,-3.22 16.29,16.29 0 0 1 -2.6,-1.72 19.13,19.13 0 0 1 2.78,1.4 44.62,44.62 0 0 0 6.82,3.05 12.46,12.46 0 0 1 3.75,1.89 11.22,11.22 0 0 1 2.3,2.54 21,21 0 0 1 1.19,2 2.62,2.62 0 0 1 0.34,0.73 z"
           style="fill:#704c45;stroke-width:0.694089"
           id="path403" /><path
           d="m 185.14,225.9 -11,7.58 c 0,0 -13.7,-0.82 -23.64,2.56 -5.51,1.88 -12.19,4.15 -19.43,11.48 a 54.41,54.41 0 0 0 -13.83,24.06 l -13.31,110.87 -20.2,78.23 H 218.2 v -99 l 12.87,-45.41 c 0,0 -3.34,-5.24 -3.24,-7.33 0.1,-2.09 7.61,-50.48 7.61,-50.48 l -15.33,-18.34 z"
           style="fill:#ff725e;stroke-width:0.694089"
           id="path405" /><path
           d="m 233.64,256.16 c 0,0 7.61,3.55 9.47,16.84 1.86,13.29 15.34,115.86 15.34,115.86 0,0 -14.89,3.44 -28.48,5 l -17.11,2.91 -0.43,-68.58 z"
           style="fill:#ff725e;stroke-width:0.694089"
           id="path407" /><g
           style="opacity:0.2;stroke-width:0.694089"
           id="g411"><path
             d="m 131.37,457.56 c 22.86,-27.4 26.45,-67.14 49.6,-94.3 l -14.17,8 c 2.51,-23.61 4.92,-48.16 -3,-70.55 a 619.24,619.24 0 0 1 -33.1,156.74"
             id="path409"
             style="stroke-width:0.694089" /></g><path
           d="m 168,258.3 q -0.78,63.43 -5.82,126.71 a 52.56,52.56 0 0 1 -2.16,9.67 7,7 0 0 1 -7.74,4.83 l -27.59,-4.16 c -4.8,-0.81 -6.62,-1.45 -8.06,-4.55 a 15.1,15.1 0 0 1 -1.32,-6.83 c 1.06,-37.75 -2.24,-57.75 0,-93.44"
           style="fill:#ff725e;stroke-width:0.694089"
           id="path413" /><path
           d="m 115.39,290.53 c 0,0 0,0.25 0,0.73 0,0.48 -0.05,1.22 -0.09,2.16 -0.1,1.9 -0.23,4.69 -0.34,8.29 -0.11,3.6 -0.2,8 -0.22,13.13 -0.02,5.13 0.08,10.94 0.26,17.38 0.36,12.88 1,28.23 0.75,45.28 0,2.13 -0.09,4.28 -0.14,6.47 a 15.19,15.19 0 0 0 1.14,6.36 6.19,6.19 0 0 0 4.72,4.09 66.47,66.47 0 0 0 6.75,1.2 l 14,2.1 7.15,1.08 c 1.19,0.17 2.42,0.39 3.59,0.51 a 6.78,6.78 0 0 0 3.43,-0.68 6.85,6.85 0 0 0 2.63,-2.32 11.15,11.15 0 0 0 1.3,-3.31 54.12,54.12 0 0 0 1.56,-7 c 0.44,-4.73 0.76,-9.46 1.11,-14.08 0.68,-9.25 1.26,-18.17 1.77,-26.68 1,-17 1.69,-32.34 2.15,-45.22 0.46,-12.88 0.72,-23.3 0.88,-30.51 0.08,-3.59 0.14,-6.38 0.18,-8.29 q 0,-1.41 0.06,-2.16 c 0,-0.49 0,-0.74 0,-0.74 0,0 0,0.25 0,0.74 v 2.16 c 0,1.91 -0.05,4.7 -0.09,8.3 -0.09,7.2 -0.29,17.63 -0.71,30.51 -0.42,12.88 -1.07,28.22 -2,45.24 -0.5,8.51 -1.07,17.44 -1.74,26.69 -0.34,4.63 -0.66,9.32 -1.11,14.11 a 56.67,56.67 0 0 1 -1.57,7.1 11.68,11.68 0 0 1 -1.37,3.45 7.17,7.17 0 0 1 -2.83,2.49 7.27,7.27 0 0 1 -3.69,0.74 c -1.26,-0.13 -2.43,-0.35 -3.64,-0.52 l -7.15,-1.08 -14,-2.11 a 65,65 0 0 1 -6.8,-1.22 7.62,7.62 0 0 1 -3.13,-1.52 7.81,7.81 0 0 1 -1.92,-2.86 15.7,15.7 0 0 1 -1.18,-6.54 q 0.08,-3.27 0.15,-6.46 c 0.31,-17 -0.33,-32.37 -0.63,-45.26 -0.16,-6.44 -0.22,-12.27 -0.19,-17.39 0.03,-5.12 0.15,-9.53 0.31,-13.13 0.16,-3.6 0.3,-6.4 0.43,-8.29 l 0.15,-2.16 c 0.04,-0.53 0.07,-0.78 0.07,-0.78 z"
           style="fill:#263238;stroke-width:0.694089"
           id="path415" /><path
           d="m 218.2,399.24 a 1.57,1.57 0 0 1 0,-0.32 c 0,-0.24 0,-0.55 0,-0.93 0,-0.86 0.07,-2.07 0.12,-3.6 0.06,-3.13 0.45,-7.64 1.1,-13.19 0.41,-2.77 0.75,-5.82 1.4,-9 0.3,-1.62 0.57,-3.3 0.94,-5 0.37,-1.7 0.74,-3.48 1.13,-5.28 1.62,-7.22 3.69,-15.07 5.62,-23.37 4,-16.57 5.43,-32 5.12,-43.19 l -0.27,-7.52 c -0.12,-2.22 -0.34,-4.12 -0.46,-5.67 -0.12,-1.55 -0.22,-2.73 -0.29,-3.59 0,-0.39 -0.05,-0.69 -0.06,-0.93 -0.01,-0.24 0,-0.32 0,-0.32 a 1.24,1.24 0 0 1 0.06,0.31 l 0.12,0.93 c 0.09,0.85 0.22,2.05 0.39,3.58 0.17,1.53 0.39,3.45 0.54,5.67 0.15,2.22 0.22,4.75 0.35,7.54 0.41,11.17 -0.95,26.71 -5,43.31 -1.93,8.31 -4,16.16 -5.66,23.35 -0.4,1.8 -0.78,3.56 -1.16,5.27 -0.38,1.71 -0.64,3.38 -1,5 -0.66,3.22 -1,6.26 -1.45,9 -0.7,5.54 -1.14,10 -1.26,13.16 -0.1,1.53 -0.17,2.73 -0.23,3.59 0,0.39 -0.05,0.69 -0.07,0.93 a 1.64,1.64 0 0 1 0.02,0.27 z"
           style="fill:#263238;stroke-width:0.694089"
           id="path417" /><path
           d="m 217.25,331.89 a 3,3 0 0 1 -0.39,0.46 l -1.19,1.24 c -1,1.08 -2.57,2.59 -4.5,4.43 -3.85,3.68 -9.36,8.59 -15.76,13.62 -6.4,5.03 -12.47,9.22 -17,12.09 -2.25,1.44 -4.08,2.58 -5.37,3.33 l -1.49,0.85 a 2.11,2.11 0 0 1 -0.53,0.27 2.88,2.88 0 0 1 0.48,-0.35 l 1.43,-0.95 c 1.26,-0.8 3.06,-2 5.28,-3.45 4.43,-2.95 10.45,-7.18 16.84,-12.2 6.39,-5.02 11.92,-9.87 15.83,-13.48 2,-1.8 3.53,-3.27 4.61,-4.3 l 1.25,-1.17 a 2.25,2.25 0 0 1 0.51,-0.39 z"
           style="fill:#263238;stroke-width:0.694089"
           id="path419" /><g
           style="opacity:0.2;stroke-width:0.694089"
           id="g423"><path
             d="m 233.28,310.44 c -3.28,30.45 -14.12,63.72 -15.08,82.93 4.3,-13.69 9.74,-26.77 13.74,-40.55 4,-13.78 5.8,-28.74 1.34,-42.38 z"
             id="path421"
             style="stroke-width:0.694089" /></g><path
           d="m 253.1,133.35 a 7.81,7.81 0 0 0 3.9,-11.76 c -1,-1.54 -2.61,-2.68 -3.55,-4.29 a 25,25 0 0 1 -1.58,-4.34 15.79,15.79 0 0 0 -10.66,-9.53 20.37,20.37 0 0 0 -14.42,1.69 c -1.76,0.89 -3.48,2 -5.44,2.18 -1.96,0.18 -3.74,-0.6 -5.61,-1 a 13,13 0 0 0 -14.57,17.06 11.15,11.15 0 0 0 -0.13,22 c 3.16,0.57 6.39,-0.25 9.52,-1 a 169.79,169.79 0 0 1 38.71,-4.32"
           style="fill:#263238;stroke-width:0.694089"
           id="path425" /><path
           d="m 187.44,201.89 a 39.88,39.88 0 0 1 -5.18,-26.73 c 1.49,-9.14 5.21,-20.19 12.26,-26.2 -3.07,-5 -0.5,-9.43 3.32,-13.91 3.82,-4.48 9.51,-7 15.2,-8.48 a 63.32,63.32 0 0 1 26.1,-1.38 c 7.07,1.11 16.18,4.16 16.12,9.4 -0.07,5.47 -4,7.14 -4,7.14 a 35.34,35.34 0 0 1 11.48,10.42 c 7.08,10.14 8.8,19.31 5.74,28.53 -3.06,9.22 -6.57,16.19 -13.44,21.06"
           style="fill:#ff725e;stroke-width:0.694089"
           id="path427" /><path
           d="m 247.25,211.74 a 8.93,8.93 0 0 1 4,-1.45 l -0.26,-0.07 a 5,5 0 0 1 0.77,0.05 3.5,3.5 0 0 1 2.6,1 v 0 a 6.53,6.53 0 0 1 2.76,3.84 7.72,7.72 0 0 1 -2.72,7.55 5.91,5.91 0 0 1 -10.09,-4.47 7.35,7.35 0 0 1 2.94,-6.45 z"
           style="fill:#455a64;stroke-width:0.694089"
           id="path429" /><path
           d="m 184.63,233.25 11.12,-73.36 a 7.2,7.2 0 0 1 7.79,-5.85 L 243,152.31 c 12.26,1.21 17.18,17.63 15.45,29.82 -1.92,13.55 -4.8,30 -8.45,39.67 -7.33,19.4 -23.24,18.78 -23.24,18.78 0,0 -3,13.89 -4.57,21.17 L 214,290.53 Z"
           style="fill:#9b6e65;stroke-width:0.694089"
           id="path431" /><path
           d="m 250.65,198 a 2.63,2.63 0 0 1 -3,2.09 2.52,2.52 0 0 1 -2.17,-2.87 2.63,2.63 0 0 1 3,-2.09 2.52,2.52 0 0 1 2.17,2.87 z"
           style="fill:#263238;stroke-width:0.694089"
           id="path433" /><path
           d="m 253.09,189.91 c -0.39,0.27 -2,-1.57 -4.81,-2.14 -2.81,-0.57 -5.08,0.4 -5.31,0 -0.12,-0.18 0.33,-0.72 1.35,-1.18 a 7.24,7.24 0 0 1 4.34,-0.42 7,7 0 0 1 3.74,2.13 c 0.72,0.83 0.88,1.49 0.69,1.61 z"
           style="fill:#263238;stroke-width:0.694089"
           id="path435" /><path
           d="m 224.6,193.23 a 2.62,2.62 0 0 1 -3,2.08 2.51,2.51 0 0 1 -2.17,-2.87 2.62,2.62 0 0 1 3,-2.08 2.52,2.52 0 0 1 2.17,2.87 z"
           style="fill:#263238;stroke-width:0.694089"
           id="path437" /><path
           d="m 225.77,184.8 c -0.39,0.27 -2.05,-1.57 -4.81,-2.14 -2.76,-0.57 -5.09,0.4 -5.32,0 -0.12,-0.18 0.33,-0.72 1.35,-1.18 a 7.18,7.18 0 0 1 4.34,-0.41 6.9,6.9 0 0 1 3.75,2.12 c 0.71,0.81 0.92,1.49 0.69,1.61 z"
           style="fill:#263238;stroke-width:0.694089"
           id="path439" /><path
           d="m 231.57,207.41 c 0,-0.16 1.8,-0.1 4.67,0.12 0.72,0.08 1.42,0.07 1.64,-0.38 a 3.74,3.74 0 0 0 0,-2.2 c -0.31,-1.85 -0.64,-3.78 -1,-5.81 -1.32,-8.27 -2.12,-15 -1.79,-15.06 0.33,-0.06 1.68,6.61 3,14.88 0.3,2 0.6,4 0.88,5.83 a 4.19,4.19 0 0 1 -0.21,2.85 1.8,1.8 0 0 1 -1.37,0.79 4.75,4.75 0 0 1 -1.24,-0.08 c -2.86,-0.43 -4.6,-0.78 -4.58,-0.94 z"
           style="fill:#263238;stroke-width:0.694089"
           id="path441" /><path
           d="m 226.71,240.58 a 52.09,52.09 0 0 1 -25.39,-12.73 c 0,0 3.68,15.15 24.14,17.41 z"
           style="fill:#704c45;stroke-width:0.694089"
           id="path443" /><path
           d="m 229.8,213.91 a 7,7 0 0 0 -5,-4.13 4.54,4.54 0 0 0 -4.06,1.23 4.39,4.39 0 0 0 -0.86,4.49 4.33,4.33 0 0 0 4.16,2.54 10.2,10.2 0 0 0 4.6,-1.68 3.1,3.1 0 0 0 1.09,-0.85 1.44,1.44 0 0 0 0.18,-1.43"
           style="fill:#704c45;stroke-width:0.694089"
           id="path445" /><path
           d="m 223,207.65 c 0.45,0.06 -0.16,3.07 2,5.73 2.16,2.66 5.4,3 5.33,3.42 0,0.2 -0.83,0.44 -2.19,0.2 a 7.67,7.67 0 0 1 -4.49,-2.69 6.65,6.65 0 0 1 -1.46,-4.77 c 0.15,-1.28 0.63,-1.95 0.81,-1.89 z"
           style="fill:#263238;stroke-width:0.694089"
           id="path447" /><path
           d="m 228.43,177.52 c -0.43,0.7 -3.12,-0.23 -6.45,-0.51 -3.33,-0.28 -6.14,0.06 -6.43,-0.7 -0.12,-0.36 0.48,-1 1.69,-1.49 a 10.84,10.84 0 0 1 5,-0.67 10.66,10.66 0 0 1 4.8,1.6 c 1.11,0.72 1.58,1.44 1.39,1.77 z"
           style="fill:#263238;stroke-width:0.694089"
           id="path449" /><path
           d="m 253.73,181.69 c -0.62,0.53 -2.39,-0.52 -4.68,-1 -2.29,-0.48 -4.32,-0.45 -4.63,-1.2 -0.13,-0.36 0.31,-0.93 1.28,-1.35 a 6.93,6.93 0 0 1 7.5,1.8 c 0.68,0.78 0.8,1.48 0.53,1.75 z"
           style="fill:#263238;stroke-width:0.694089"
           id="path451" /><path
           d="m 244.45,158.6 c 0,0 -18.74,-4.3 -37.51,13.88 -12.37,12 -18.1,29.13 -18.1,29.13 l -0.12,-35 8.71,-14.07 14.57,-4.54 24.95,3.89 8.32,6.6"
           style="fill:#ff725e;stroke-width:0.694089"
           id="path453" /><path
           d="m 207.24,152.46 c 31.49,-0.81 53.31,14.23 52.68,38.65 l 9.4,-14.15 -11.58,-22.09 -16.09,-8.09 -35.46,-2.12 z"
           style="fill:#ff725e;stroke-width:0.694089"
           id="path455" /><path
           d="m 184.73,198.45 a 9.58,9.58 0 0 1 4.27,-1.56 l -0.28,-0.08 a 5.78,5.78 0 0 1 0.83,0.05 3.77,3.77 0 0 1 2.8,1 v 0 a 7.06,7.06 0 0 1 3,4.15 8.35,8.35 0 0 1 -2.93,8.12 6.36,6.36 0 0 1 -10.86,-4.82 7.9,7.9 0 0 1 3.17,-6.86 z"
           style="fill:#455a64;stroke-width:0.694089"
           id="path457" /><path
           d="m 194.1,189.27 a 3,3 0 0 1 -1.23,-0.77 7.7,7.7 0 0 1 -2.16,-3.34 7.8,7.8 0 0 1 0.33,-5.88 c 0.48,-1 1.1,-2 1.51,-3 a 3.38,3.38 0 0 0 -0.16,-3.15 11.8,11.8 0 0 0 -2.53,-2.45 8.72,8.72 0 0 1 -2.28,-2.7 9.73,9.73 0 0 1 -1,-5.82 8.47,8.47 0 0 1 1.4,-3.71 3.16,3.16 0 0 1 1,-1.06 11.23,11.23 0 0 0 -1.8,4.84 9.3,9.3 0 0 0 1.11,5.37 7.92,7.92 0 0 0 2.13,2.45 12,12 0 0 1 2.71,2.64 4.16,4.16 0 0 1 0.21,3.88 c -0.46,1.16 -1.11,2.12 -1.57,3.07 a 7.38,7.38 0 0 0 -0.47,5.37 8.13,8.13 0 0 0 1.83,3.27 c 0.58,0.64 1.01,0.93 0.97,0.99 z"
           style="fill:#ffffff;stroke-width:0.694089"
           id="path459" /><path
           d="m 197.59,147.39 a 13,13 0 0 0 -1.9,4.49 9.71,9.71 0 0 0 0.49,5.15 c 0.67,1.86 2.3,3.37 3.88,5.18 a 8.69,8.69 0 0 1 1.82,3.1 6,6 0 0 1 -0.07,3.38 c -0.61,2 -1.6,3.61 -1.79,5.08 a 4.71,4.71 0 0 0 0.54,3.36 c 0.45,0.69 0.95,0.86 0.9,0.94 -0.05,0.08 -0.13,0 -0.35,-0.1 a 2.39,2.39 0 0 1 -0.81,-0.64 4.82,4.82 0 0 1 -0.86,-3.64 c 0.14,-1.65 1.12,-3.31 1.63,-5.21 a 5.25,5.25 0 0 0 0,-2.94 8,8 0 0 0 -1.67,-2.79 c -1.49,-1.72 -3.26,-3.37 -4,-5.45 a 9.85,9.85 0 0 1 -0.35,-5.54 9,9 0 0 1 1.52,-3.4 c 0.59,-0.71 0.99,-1 1.02,-0.97 z"
           style="fill:#ffffff;stroke-width:0.694089"
           id="path461" /><path
           d="m 215.61,166.14 c 0,0 -0.29,0.26 -0.85,0 a 1.63,1.63 0 0 1 -0.75,-0.73 2.12,2.12 0 0 1 -0.18,-1.38 c 0.16,-1 1,-2 1.23,-3 0.23,-1 -0.43,-2.15 -1.48,-3 a 8.74,8.74 0 0 1 -2.74,-3 7.11,7.11 0 0 1 -0.7,-3.31 4.29,4.29 0 0 1 0.94,-2.91 16.63,16.63 0 0 0 -0.35,2.9 7.27,7.27 0 0 0 0.8,3 8.47,8.47 0 0 0 2.59,2.76 5.78,5.78 0 0 1 1.43,1.68 2.85,2.85 0 0 1 0.25,2.15 c -0.42,1.31 -1.21,2.1 -1.39,2.93 a 1.54,1.54 0 0 0 0.51,1.71 c 0.38,0.2 0.68,0.13 0.69,0.2 z"
           style="fill:#ffffff;stroke-width:0.694089"
           id="path463" /><path
           d="m 224.81,151.06 c 0,0 0.21,0 0.39,0.25 a 1.43,1.43 0 0 1 0.11,1.24 7.71,7.71 0 0 1 -0.82,1.45 3.4,3.4 0 0 0 -0.37,1.69 7.24,7.24 0 0 0 1.06,3.19 c 0.45,0.79 0.72,1.3 0.62,1.37 -0.1,0.07 -0.52,-0.31 -1.11,-1.05 a 6,6 0 0 1 -1.41,-3.49 3.72,3.72 0 0 1 0.55,-2.11 c 0.38,-0.56 0.76,-0.91 0.93,-1.27 a 1.61,1.61 0 0 0 0.05,-1.27 z"
           style="fill:#ffffff;stroke-width:0.694089"
           id="path465" /><path
           d="m 257.1,146.53 c 0,0 -0.12,0.31 -0.5,0.74 -0.38,0.43 -1,1 -1.58,1.73 a 4.17,4.17 0 0 0 -0.91,3.07 17.14,17.14 0 0 1 0.06,4.39 7.66,7.66 0 0 1 -2.14,3.95 7.34,7.34 0 0 1 -3.16,1.82 c -2.05,0.55 -3.34,0.08 -3.3,0 a 17.73,17.73 0 0 0 3.12,-0.57 7.16,7.16 0 0 0 4.66,-5.38 19.11,19.11 0 0 0 0,-4.21 4.69,4.69 0 0 1 1.23,-3.46 14.48,14.48 0 0 1 1.81,-1.59 c 0.42,-0.34 0.67,-0.53 0.71,-0.49 z"
           style="fill:#ffffff;stroke-width:0.694089"
           id="path467" /><path
           d="m 268.37,163.59 c 0.09,0.15 -1,0.4 -1.71,1.8 -0.34,0.73 -0.91,1.56 -1.39,2.47 a 19.08,19.08 0 0 1 -1.8,3.06 6.62,6.62 0 0 1 -6,2.28 3.73,3.73 0 0 1 -2.45,-1.08 c 0.07,-0.14 0.95,0.41 2.51,0.5 a 6.45,6.45 0 0 0 5.29,-2.23 23,23 0 0 0 1.78,-2.91 c 0.56,-1 1.14,-1.68 1.56,-2.39 a 3.26,3.26 0 0 1 1.49,-1.35 c 0.44,-0.18 0.7,-0.2 0.72,-0.15 z"
           style="fill:#ffffff;stroke-width:0.694089"
           id="path469" /><path
           d="m 266.79,184.22 c 0.09,0.06 -0.08,0.52 -0.64,1.05 a 4.39,4.39 0 0 1 -5.61,0.27 c -0.61,-0.48 -0.82,-0.92 -0.74,-1 0.08,-0.08 1.5,1.13 3.55,1 2.05,-0.13 3.28,-1.49 3.44,-1.32 z"
           style="fill:#ffffff;stroke-width:0.694089"
           id="path471" /><path
           d="m 239.93,139.73 c 0.06,0.14 -1,0.43 -2.08,1.57 a 6.29,6.29 0 0 0 -1.72,5.56 c 0.25,1.14 0.74,2.44 0.4,3.66 a 4.81,4.81 0 0 1 -1.7,2.54 4.92,4.92 0 0 1 -2.41,1.28 c -0.07,-0.13 0.87,-0.6 2,-1.71 a 4.64,4.64 0 0 0 1.35,-2.28 c 0.24,-1 -0.18,-2 -0.47,-3.32 a 6.22,6.22 0 0 1 0.36,-3.71 6.59,6.59 0 0 1 1.78,-2.45 3.67,3.67 0 0 1 2.49,-1.14 z"
           style="fill:#ffffff;stroke-width:0.694089"
           id="path473" /><path
           d="m 218,150.14 c -0.2,-0.14 0.8,-1.79 1.29,-4 0.49,-2.21 0.33,-4.18 0.58,-4.22 0.25,-0.04 0.8,1.95 0.24,4.4 -0.56,2.45 -1.97,3.97 -2.11,3.82 z"
           style="fill:#ffffff;stroke-width:0.694089"
           id="path475" /><path
           d="m 204.48,145.25 c 0,-0.06 0.22,-0.18 0.47,-0.54 a 3,3 0 0 0 0.54,-1.76 c 0,-1.62 -1.14,-3.7 -2,-6.22 A 9.82,9.82 0 0 1 203,133 a 5.53,5.53 0 0 1 1.12,-3 3.35,3.35 0 0 1 1.75,-1.21 c 0.51,-0.11 0.79,0 0.78,0 -0.01,0 -0.27,0.08 -0.68,0.26 a 3.42,3.42 0 0 0 -1.37,1.25 c -1,1.32 -1.13,3.72 -0.32,6.12 0.81,2.4 2,4.61 1.78,6.5 a 3,3 0 0 1 -0.88,2 c -0.38,0.37 -0.7,0.37 -0.7,0.33 z"
           style="fill:#ffffff;stroke-width:0.694089"
           id="path477" /><path
           d="m 225.47,140.3 c 0,-0.05 0.18,-0.24 0.56,-0.53 0.38,-0.29 1,-0.69 1.21,-1.36 a 4.31,4.31 0 0 0 -0.85,-2.58 c -0.57,-0.94 -1.39,-1.86 -2.19,-3 a 6,6 0 0 1 -1.45,-3.63 5.38,5.38 0 0 1 1.39,-2.88 c 1.18,-1.33 2.07,-1.93 2.14,-1.86 a 16.9,16.9 0 0 1 -1.67,2.22 5.22,5.22 0 0 0 -1.09,2.57 5.63,5.63 0 0 0 1.36,3.09 c 1.51,2 3.33,4.06 2.93,6.19 A 2.91,2.91 0 0 1 226.2,140 c -0.44,0.26 -0.7,0.35 -0.73,0.3 z"
           style="fill:#ffffff;stroke-width:0.694089"
           id="path479" /><path
           d="m 244.74,141 c -0.05,-0.12 0.92,-0.32 1.46,-1.58 a 3.88,3.88 0 0 0 0.21,-2.27 17.88,17.88 0 0 0 -0.93,-2.87 7.93,7.93 0 0 1 -0.63,-3.17 4,4 0 0 1 1.12,-2.46 c 1,-1.19 2.16,-1.21 2.13,-1.06 a 4.86,4.86 0 0 0 -1.67,1.43 3.74,3.74 0 0 0 -0.81,2.12 8.45,8.45 0 0 0 0.64,2.86 14.14,14.14 0 0 1 0.91,3 4.16,4.16 0 0 1 -0.44,2.66 2.72,2.72 0 0 1 -1.33,1.24 c -0.4,0.15 -0.66,0.1 -0.66,0.1 z"
           style="fill:#ffffff;stroke-width:0.694089"
           id="path481" /><path
           d="m 251.3,141.73 a 12.48,12.48 0 0 1 -2.31,-0.39 c -1.47,-0.33 -3.61,-0.7 -6.26,-1.09 a 69.62,69.62 0 0 0 -20.83,0.31 104.14,104.14 0 0 0 -20.08,5.84 l -5.91,2.36 a 11.94,11.94 0 0 1 -2.2,0.79 12,12 0 0 1 2.07,-1.09 c 1.35,-0.66 3.34,-1.57 5.82,-2.61 a 93.7,93.7 0 0 1 20.16,-6.12 64.87,64.87 0 0 1 21.06,-0.07 60.42,60.42 0 0 1 6.24,1.36 12.83,12.83 0 0 1 2.24,0.71 z"
           style="fill:#263238;stroke-width:0.694089"
           id="path483" /><path
           d="m 200.08,150.11 h 0.21 l 0.61,-0.12 1,-0.2 1.36,-0.22 a 37.81,37.81 0 0 1 8.73,-0.22 52.66,52.66 0 0 1 12.64,2.77 c 2.32,0.78 4.69,1.76 7.13,2.83 2.44,1.07 4.93,2.26 7.39,3.64 10,5.35 16.73,13.8 19.1,20.77 a 29.49,29.49 0 0 1 1.62,8.56 c 0.06,1 0.05,1.83 0,2.38 v 0.62 a 0.85,0.85 0 0 0 0,0.21 0.58,0.58 0 0 0 0,-0.21 c 0,-0.17 0,-0.37 0,-0.62 0,-0.54 0.08,-1.35 0.06,-2.39 a 28.71,28.71 0 0 0 -1.49,-8.66 c -2.31,-7.09 -9.13,-15.68 -19.19,-21.08 -2.48,-1.38 -5,-2.57 -7.43,-3.65 -2.43,-1.08 -4.84,-2 -7.18,-2.82 A 52.07,52.07 0 0 0 212,149 a 36.11,36.11 0 0 0 -8.78,0.38 l -1.36,0.26 -1,0.25 -0.6,0.16 c -0.12,0.03 -0.18,0.05 -0.18,0.06 z"
           style="fill:#263238;stroke-width:0.694089"
           id="path485" /><path
           d="m 239.26,158.53 a 5.35,5.35 0 0 0 -0.66,-0.11 16.79,16.79 0 0 0 -1.91,-0.15 26.64,26.64 0 0 0 -7,0.78 48.47,48.47 0 0 0 -20.18,11.07 74,74 0 0 0 -8.63,9.4 88,88 0 0 0 -6.06,8.48 48,48 0 0 0 -3.33,6.19 c -0.32,0.76 -0.56,1.36 -0.7,1.77 a 2.9,2.9 0 0 0 -0.19,0.64 4.62,4.62 0 0 0 0.28,-0.6 q 0.25,-0.62 0.78,-1.74 a 56,56 0 0 1 3.45,-6.08 96.28,96.28 0 0 1 6.11,-8.38 76.45,76.45 0 0 1 8.61,-9.32 49.42,49.42 0 0 1 19.94,-11.1 28.81,28.81 0 0 1 6.9,-0.93 c 0.82,0 1.47,0 1.9,0.07 a 3.46,3.46 0 0 0 0.69,0.01 z"
           style="fill:#263238;stroke-width:0.694089"
           id="path487" /><path
           d="m 69.22,457.2 c 0,0 6.12,-2 10,-3.14 2.17,-0.63 11.15,-4.6 16.61,-5.63 4.56,-0.86 17.19,-7.31 19.15,-8.63 1.96,-1.32 9.7,-44.45 9.7,-44.45 l 29.2,4.4 c 0,0 -15.57,41.6 -16.55,45.57 -0.98,3.97 -4.68,14.24 -4.68,14.24 H 69.22 Z"
           style="fill:#9b6e65;stroke-width:0.694089"
           id="path489" /><path
           d="m 120.35,458.6 c 0,-0.09 1,-0.17 2.37,-0.77 a 9.47,9.47 0 0 0 5.88,-9.41 c -0.09,-1.53 -0.44,-2.44 -0.35,-2.47 0.09,-0.03 0.15,0.2 0.3,0.62 a 7.94,7.94 0 0 1 0.42,1.82 9.26,9.26 0 0 1 -6.11,9.79 7.91,7.91 0 0 1 -1.82,0.42 1.57,1.57 0 0 1 -0.69,0 z"
           style="fill:#704c45;stroke-width:0.694089"
           id="path491" /><path
           d="m 116.52,456.47 a 3.68,3.68 0 0 1 -0.59,0.26 11.46,11.46 0 0 1 -1.8,0.47 41.72,41.72 0 0 1 -6.84,0.15 16,16 0 0 0 -4.6,0.55 c -1.61,0.48 -3.2,1.36 -5,2 A 16.54,16.54 0 0 1 85.4,458.96 l -0.62,-0.3 0.66,-0.18 0.59,-0.17 a 22.16,22.16 0 0 0 5.88,-2.67 38.35,38.35 0 0 0 4.73,-3.8 24.2,24.2 0 0 1 9.07,-5 54.37,54.37 0 0 1 6.79,-1.62 l 1.88,-0.31 a 3.15,3.15 0 0 1 0.65,-0.07 2.43,2.43 0 0 1 -0.64,0.17 l -1.85,0.41 a 63,63 0 0 0 -6.72,1.77 24.29,24.29 0 0 0 -8.86,5 37.69,37.69 0 0 1 -4.77,3.87 22.84,22.84 0 0 1 -6,2.74 l -0.6,0.17 v -0.48 a 16.24,16.24 0 0 0 11.93,0.94 c 1.79,-0.57 3.4,-1.45 5.06,-1.93 a 16.4,16.4 0 0 1 4.74,-0.51 46.35,46.35 0 0 0 6.8,0 c 1.56,-0.21 2.38,-0.58 2.4,-0.52 z"
           style="fill:#704c45;stroke-width:0.694089"
           id="path493" /></g><g
         id="freepik--character-4--inject-18"
         style="stroke-width:0.694089"><polygon
           points="530.67,422.51 514.93,473.09 667.44,473.81 664.84,378.01 589.88,370.37 547.64,383.24 "
           style="fill:#263238;stroke-width:0.694089"
           id="polygon496" /><path
           d="m 466.11,389.27 c 0,0 -12.28,4.67 -21.89,7.5 -9.61,2.83 -26.76,13.42 -26.76,13.42 0,0 -17.46,15.73 -16.83,17.81 0.63,2.08 2.7,3.08 5.35,0.95 2.65,-2.13 15.74,-9.86 15.74,-9.86 0,0 0.84,4.38 3.67,4.88 a 7.61,7.61 0 0 0 4.32,-0.2 c 0,0 1.16,4.11 3.2,5.45 a 11.76,11.76 0 0 0 3.92,1.67 3.3,3.3 0 0 0 2.7,3.08 17.27,17.27 0 0 0 5.41,0.64 c 0,0 9.11,-5.52 10.56,-8.18 1.45,-2.66 3.22,-6.25 3.22,-6.25 l 3.76,-1.88 11.55,-2 z"
           style="fill:#c78976;stroke-width:0.694089"
           id="path498" /><path
           d="m 453.44,410.05 a 7.28,7.28 0 0 1 -1.13,1.39 14.92,14.92 0 0 1 -4.06,2.85 20.45,20.45 0 0 1 -7.27,2 15.85,15.85 0 0 1 -4.58,-0.19 12,12 0 0 1 -4.65,-1.91 l 0.3,-0.41 a 32.16,32.16 0 0 1 3.22,2.73 11.4,11.4 0 0 1 1.45,1.7 5.68,5.68 0 0 1 0.88,2.14 6.58,6.58 0 0 1 -1.25,5.23 l -0.12,0.15 -0.18,-0.07 a 24.63,24.63 0 0 1 -4.9,-2.74 c -1.48,-1 -2.84,-2.08 -4.12,-3.09 -1.28,-1.01 -2.46,-2 -3.59,-2.9 a 4.46,4.46 0 0 1 -1.34,-3.77 6.25,6.25 0 0 1 0.52,-1.68 c 0.21,-0.51 0.42,-1 0.64,-1.41 0.43,-0.85 0.85,-1.56 1.21,-2.13 0.36,-0.57 0.67,-1 0.89,-1.25 a 2.53,2.53 0 0 1 0.35,-0.41 2.38,2.38 0 0 1 -0.27,0.46 c -0.19,0.29 -0.47,0.73 -0.81,1.3 a 23.87,23.87 0 0 0 -1.13,2.15 c -0.21,0.43 -0.41,0.9 -0.6,1.4 a 5.75,5.75 0 0 0 -0.46,1.61 4.1,4.1 0 0 0 1.27,3.44 c 1.08,0.88 2.34,1.83 3.6,2.83 1.26,1 2.64,2.05 4.11,3.05 a 24.62,24.62 0 0 0 4.82,2.66 l -0.3,0.09 a 6.09,6.09 0 0 0 1.15,-4.82 5.33,5.33 0 0 0 -0.8,-1.95 11.25,11.25 0 0 0 -1.38,-1.62 30.06,30.06 0 0 0 -3.16,-2.69 l 0.3,-0.41 a 11.32,11.32 0 0 0 4.44,1.85 15.4,15.4 0 0 0 4.46,0.23 20.64,20.64 0 0 0 7.16,-1.9 15.5,15.5 0 0 0 4.08,-2.7 c 0.81,-0.72 1.2,-1.26 1.25,-1.21 z"
           style="fill:#925b4c;stroke-width:0.694089"
           id="path500" /><path
           d="m 437,422.92 a 9.13,9.13 0 0 1 1.5,-0.6 11,11 0 0 0 3.26,-1.92 3.47,3.47 0 0 0 1,-1.68 2.23,2.23 0 0 0 -1.36,-2.54 c 0,0 0.17,-0.06 0.46,0 a 1.78,1.78 0 0 1 1,0.78 2.56,2.56 0 0 1 0.39,1.83 3.66,3.66 0 0 1 -1.14,2 9,9 0 0 1 -3.5,1.9 3.61,3.61 0 0 1 -1.61,0.23 z"
           style="fill:#925b4c;stroke-width:0.694089"
           id="path502" /><path
           d="m 439.57,429.89 a 21.39,21.39 0 0 1 2.21,-1.44 c 0.69,-0.44 1.49,-1 2.35,-1.62 a 18,18 0 0 0 2.6,-2.26 3.56,3.56 0 0 0 0.79,-1.48 2.3,2.3 0 0 0 -0.19,-1.49 3.23,3.23 0 0 0 -2,-1.67 5.49,5.49 0 0 0 -1.86,-0.23 2.65,2.65 0 0 1 -0.71,0 1.78,1.78 0 0 1 0.7,-0.2 5,5 0 0 1 2,0.07 3.62,3.62 0 0 1 2.34,1.82 2.9,2.9 0 0 1 0.25,1.81 4.07,4.07 0 0 1 -0.89,1.71 15.91,15.91 0 0 1 -2.72,2.3 c -0.89,0.63 -1.72,1.15 -2.43,1.56 a 9.54,9.54 0 0 1 -2.44,1.12 z"
           style="fill:#925b4c;stroke-width:0.694089"
           id="path504" /><path
           d="m 451.69,429.09 a 8.81,8.81 0 0 0 0.43,-1.35 2.94,2.94 0 0 0 -4.19,-3.23 c -0.8,0.35 -1.13,0.83 -1.2,0.77 -0.07,-0.06 0.19,-0.62 1,-1.1 a 3.21,3.21 0 0 1 4.73,3.63 c -0.22,0.94 -0.74,1.32 -0.77,1.28 z"
           style="fill:#925b4c;stroke-width:0.694089"
           id="path506" /><path
           d="m 527.35,442.27 -3.21,4.73 h -23.93 l -30.48,12.28 h 78.72 c 0.67,-0.83 2.72,-4 2.72,-4 z"
           style="fill:#c78976;stroke-width:0.694089"
           id="path508" /><path
           d="m 636.43,296.61 c -17.19,-27.81 -54.13,-61.79 -57.26,-63.36 -3.13,-1.57 -53.63,-4.74 -53.63,-4.74 l -39.88,28.3 -13.24,19.79 c -1.81,5.63 -5,14.3 -3.54,20 l 1.23,9.76 41.6,26.85 20.69,12.08 11.52,16.34 -0.92,27.37 16.3,-3.1 c 0,0 25.1,2.48 49.16,3.07 24.06,0.59 57.15,-7.05 57.15,-7.05 0,0 -10.01,-54.28 -29.18,-85.31 z"
           style="fill:#455a64;stroke-width:0.694089"
           id="path510" /><path
           d="m 540.47,276.4 14.12,78.34 -29.28,86.41 29.28,16 c 0,0 20.92,-36.82 30.34,-59.09 9.42,-22.27 12.85,-34.71 12.85,-34.71 0,0 0,-84.67 -3,-94.43 -3,-9.76 -12.94,-29.11 -23.4,-28.06 -10.46,1.05 -35.19,11.78 -30.91,35.54 z"
           style="fill:#455a64;stroke-width:0.694089"
           id="path512" /><path
           d="m 470.11,306.4 25.23,61.78 a 25.55,25.55 0 0 0 -3,7.27 l -31.47,15.55 9.24,29.75 c 0,0 39.26,-13 44.82,-16 5.56,-3 21.6,-14.42 24.38,-23.69 2.78,-9.27 -12.63,-42.11 -12.63,-42.11 z"
           style="fill:#455a64;stroke-width:0.694089"
           id="path514" /><path
           d="m 532.4,345.33 a 3,3 0 0 1 -0.54,-0.27 l -1.49,-0.83 c -1.29,-0.74 -3.15,-1.82 -5.43,-3.2 -2.28,-1.38 -5,-3 -7.86,-5 -1.45,-1 -3,-2.08 -4.45,-3.29 l -4.56,-3.77 -15.92,-13.34 -4.78,-4.09 -1.29,-1.13 a 2.53,2.53 0 0 1 -0.42,-0.42 2.11,2.11 0 0 1 0.49,0.34 l 1.34,1 c 1.21,1 2.87,2.33 4.9,4 4.14,3.43 9.78,8.08 16,13.22 l 4.55,3.79 c 1.48,1.19 3,2.28 4.4,3.28 2.88,2 5.54,3.71 7.79,5.13 l 5.33,3.33 1.44,0.92 a 2.36,2.36 0 0 1 0.5,0.33 z"
           style="fill:#263238;stroke-width:0.694089"
           id="path516" /><path
           d="m 535.32,232.13 a 14.09,14.09 0 0 1 1.93,2.91 21,21 0 0 1 2.24,9.2 24.93,24.93 0 0 1 -0.79,6.54 27.78,27.78 0 0 1 -3,7 37.92,37.92 0 0 1 -12.16,12.16 32.24,32.24 0 0 1 -16.28,5.42 21.47,21.47 0 0 1 -13.37,-4 17.85,17.85 0 0 1 -6,-7.3 11,11 0 0 1 -0.53,-1.4 6,6 0 0 1 -0.28,-1.06 c -0.06,-0.26 -0.1,-0.48 -0.14,-0.66 a 0.67,0.67 0 0 1 0,-0.23 30,30 0 0 0 1.16,3.27 18,18 0 0 0 6,7.09 21.22,21.22 0 0 0 13.13,3.85 32,32 0 0 0 16,-5.37 37.89,37.89 0 0 0 12,-12 27.66,27.66 0 0 0 3,-6.82 25,25 0 0 0 0.83,-6.42 21.12,21.12 0 0 0 -2.06,-9.12 12.91,12.91 0 0 0 -0.69,-1.31 c -0.21,-0.37 -0.4,-0.69 -0.57,-0.93 l -0.37,-0.56 c -0.02,-0.18 -0.06,-0.25 -0.05,-0.26 z"
           style="fill:#263238;stroke-width:0.694089"
           id="path518" /><path
           d="m 524.46,268.24 c -0.14,0.05 -0.87,-1.57 -2.1,-3.35 -1.23,-1.78 -2.48,-3.05 -2.37,-3.16 a 11.65,11.65 0 0 1 4.47,6.51 z"
           style="fill:#263238;stroke-width:0.694089"
           id="path520" /><path
           d="m 534,259.34 a 23.5,23.5 0 0 0 -3.35,-2.45 24.38,24.38 0 0 0 -3.92,-1.36 8,8 0 0 1 7.27,3.81 z"
           style="fill:#263238;stroke-width:0.694089"
           id="path522" /><path
           d="m 539.19,248.72 c -0.05,0.14 -1.52,-0.31 -3.37,-0.56 -1.85,-0.25 -3.39,-0.24 -3.4,-0.39 a 7,7 0 0 1 3.47,-0.13 7.14,7.14 0 0 1 3.3,1.08 z"
           style="fill:#263238;stroke-width:0.694089"
           id="path524" /><path
           d="m 538.29,236.36 a 20.12,20.12 0 0 1 -3,0.84 22.38,22.38 0 0 1 -3,0.88 6.38,6.38 0 0 1 2.87,-1.38 6.53,6.53 0 0 1 3.13,-0.34 z"
           style="fill:#263238;stroke-width:0.694089"
           id="path526" /><path
           d="m 508.34,274.23 a 5.18,5.18 0 0 1 -0.78,-3.2 5.28,5.28 0 0 1 0.81,-3.2 c 0.15,0.05 -0.29,1.44 -0.29,3.2 0,1.76 0.4,3.15 0.26,3.2 z"
           style="fill:#263238;stroke-width:0.694089"
           id="path528" /><path
           d="m 492.21,271.07 a 6.47,6.47 0 0 1 1.44,-2.08 c 0.9,-1.06 1.73,-1.84 1.83,-1.74 0.1,0.1 -0.53,1 -1.43,2.08 -0.9,1.08 -1.73,1.83 -1.84,1.74 z"
           style="fill:#263238;stroke-width:0.694089"
           id="path530" /><path
           d="m 594.73,268.91 c 0,0 0,0.14 0.12,0.42 a 10.62,10.62 0 0 1 0.28,1.26 c 0.22,1.12 0.42,2.81 0.64,5 0.42,4.4 0.8,10.87 1.11,19.13 0.62,16.51 1,40.15 1.12,68.62 v 0.06 c -2.11,7.17 -4.77,14.51 -7.71,22.09 -2.94,7.58 -6.13,15.39 -9.91,23.22 -7.5,15.69 -16.22,31.93 -25.55,48.55 l -0.13,0.23 -0.22,-0.13 -2.71,-1.47 -26.58,-14.51 -0.19,-0.1 0.07,-0.21 29.34,-86.4 v 0.1 c -4.27,-23.9 -7.77,-43.49 -10.2,-57.11 -1.21,-6.8 -2.14,-12.11 -2.78,-15.73 -0.31,-1.8 -0.55,-3.18 -0.71,-4.12 -0.16,-0.94 -0.23,-1.41 -0.23,-1.41 0,0 0.11,0.48 0.29,1.4 0.18,0.92 0.43,2.31 0.77,4.11 0.66,3.62 1.64,8.92 2.89,15.71 2.47,13.61 6,33.19 10.38,57.08 v 0.05 0.05 c -8.29,24.49 -18.29,54.08 -29.24,86.44 l -0.12,-0.31 26.54,14.5 2.71,1.48 -0.35,0.1 c 9.32,-16.62 18,-32.85 25.55,-48.51 3.77,-7.82 7,-15.63 9.92,-23.18 2.92,-7.55 5.62,-14.91 7.73,-22 v 0.06 c 0,-28.47 -0.39,-52.1 -0.93,-68.61 -0.28,-8.26 -0.62,-14.73 -1,-19.12 -0.2,-2.2 -0.38,-3.88 -0.58,-5 a 12.31,12.31 0 0 0 -0.24,-1.27 4.37,4.37 0 0 1 -0.08,-0.47 z"
           style="fill:#263238;stroke-width:0.694089"
           id="path532" /><path
           d="m 575.68,247.62 a 39.94,39.94 0 0 0 -4.74,-2 23.65,23.65 0 0 0 -23.17,4.75 41.64,41.64 0 0 0 -3.57,3.71 5.45,5.45 0 0 1 0.76,-1.17 21,21 0 0 1 2.56,-2.82 23.1,23.1 0 0 1 23.54,-4.82 20.51,20.51 0 0 1 3.46,1.59 5.59,5.59 0 0 1 1.16,0.76 z"
           style="fill:#263238;stroke-width:0.694089"
           id="path534" /><g
           style="opacity:0.3;stroke-width:0.694089"
           id="g540"><path
             d="m 587.57,391.87 c 0.16,-0.42 0.31,-0.84 0.47,-1.25 l -0.26,0.18 z"
             id="path536"
             style="stroke-width:0.694089" /><path
             d="m 603.37,336.78 c -1.26,-12.84 -2.92,-25.68 -6.26,-38.14 -2.83,21.63 2.72,43.82 -1,65.32 -1.58,9.17 -4.81,18 -8.09,26.66 8.18,-5.35 13.11,-14.71 15.06,-24.3 1.95,-9.59 1.26,-19.7 0.29,-29.54 z"
             id="path538"
             style="stroke-width:0.694089" /></g><g
           style="opacity:0.3;stroke-width:0.694089"
           id="g544"><path
             d="m 529,343.3 -34.73,-26.21 c 0.39,9.77 7.82,17.79 15.55,23.79 7.73,6 18.23,12.9 25.55,19.38 C 533,354.86 531.43,348.7 529,343.3 Z"
             id="path542"
             style="stroke-width:0.694089" /></g><path
           d="m 544.32,295.37 a 5.92,5.92 0 0 1 -0.56,0.66 c -0.38,0.42 -1,1 -1.71,1.81 a 41.75,41.75 0 0 1 -7,5.91 20.5,20.5 0 0 1 -5.78,2.62 14.71,14.71 0 0 1 -7.28,0 27.23,27.23 0 0 1 -7.31,-3.38 c -2.37,-1.45 -4.71,-3.14 -7.3,-4.49 a 18.93,18.93 0 0 0 -8.05,-2.42 11.82,11.82 0 0 0 -7.32,2.39 57.67,57.67 0 0 0 -5.47,4.7 22.52,22.52 0 0 1 -5.15,3.71 9.45,9.45 0 0 1 -5.11,1.07 7.7,7.7 0 0 1 -3.75,-1.25 5.25,5.25 0 0 1 -1.73,-1.8 3.46,3.46 0 0 1 -0.35,-0.8 c 0,0 0.14,0.27 0.44,0.74 a 5.43,5.43 0 0 0 1.75,1.69 7.69,7.69 0 0 0 3.66,1.13 9.28,9.28 0 0 0 4.93,-1.11 22.53,22.53 0 0 0 5,-3.7 57.88,57.88 0 0 1 5.48,-4.77 14.9,14.9 0 0 1 3.51,-1.87 11.48,11.48 0 0 1 4.1,-0.64 19.32,19.32 0 0 1 8.28,2.47 c 2.64,1.37 5,3.07 7.33,4.52 a 26.77,26.77 0 0 0 7.16,3.34 12.71,12.71 0 0 0 3.63,0.47 14.26,14.26 0 0 0 3.43,-0.4 20.27,20.27 0 0 0 5.69,-2.51 44.16,44.16 0 0 0 7,-5.75 l 1.77,-1.73 a 5,5 0 0 1 0.71,-0.61 z"
           style="fill:#ffffff;stroke-width:0.694089"
           id="path546" /><path
           d="m 595.05,289.3 a 2.57,2.57 0 0 1 -0.42,0.4 5.92,5.92 0 0 1 -1.43,0.83 9.36,9.36 0 0 1 -6,0.18 c -5.21,-1.2 -9.83,-7.56 -17.62,-9 A 27.75,27.75 0 0 0 564,281 a 29.43,29.43 0 0 0 -5.23,0.4 28,28 0 0 0 -8.4,2.82 30.25,30.25 0 0 0 -6.6,4.86 2.54,2.54 0 0 1 0.37,-0.44 l 1.13,-1.2 c 0.55,-0.46 1.2,-1.06 2,-1.67 l 1.34,-0.94 c 0.47,-0.34 1,-0.6 1.58,-0.93 a 27.57,27.57 0 0 1 8.49,-3 29.46,29.46 0 0 1 5.32,-0.44 26.85,26.85 0 0 1 5.69,0.71 26.2,26.2 0 0 1 5.41,1.89 c 0.81,0.46 1.63,0.87 2.38,1.34 0.75,0.47 1.46,1 2.15,1.48 2.71,2 5.21,3.77 7.66,4.45 a 9.44,9.44 0 0 0 5.85,0 8.78,8.78 0 0 0 1.91,-1.03 z"
           style="fill:#ffffff;stroke-width:0.694089"
           id="path548" /><path
           d="m 621,275.27 c 0,0.05 -0.46,0.26 -1.2,0.83 a 9.67,9.67 0 0 0 -2.49,3 20.26,20.26 0 0 0 -1.89,5.54 37.55,37.55 0 0 1 -1.91,7.06 12,12 0 0 1 -4.82,5.49 13.37,13.37 0 0 1 -5.67,1.91 11.38,11.38 0 0 1 -4,-0.31 5.85,5.85 0 0 1 -1,-0.35 c -0.24,-0.09 -0.36,-0.14 -0.35,-0.16 0.01,-0.02 0.51,0.13 1.43,0.31 a 12.25,12.25 0 0 0 3.94,0.15 13.47,13.47 0 0 0 5.46,-2 11.74,11.74 0 0 0 4.59,-5.29 40.62,40.62 0 0 0 1.92,-6.95 19.79,19.79 0 0 1 2,-5.62 9.07,9.07 0 0 1 2.69,-3 5,5 0 0 1 0.95,-0.54 c 0.25,-0.04 0.35,-0.09 0.35,-0.07 z"
           style="fill:#ffffff;stroke-width:0.694089"
           id="path550" /><path
           d="m 504,324.79 a 4.13,4.13 0 0 1 -0.2,1.06 8.47,8.47 0 0 1 -0.35,1.22 16.55,16.55 0 0 1 -0.61,1.57 15.73,15.73 0 0 1 -0.93,1.82 19.62,19.62 0 0 1 -1.26,2 21.85,21.85 0 0 1 -8.2,6.82 20.33,20.33 0 0 1 -4.15,1.43 13.55,13.55 0 0 1 -1.66,0.29 7.71,7.71 0 0 1 -1.26,0.1 4.74,4.74 0 0 1 -1.08,0 c 0,-0.11 1.54,-0.12 3.91,-0.73 a 21.65,21.65 0 0 0 4,-1.5 24.45,24.45 0 0 0 4.4,-2.87 24.18,24.18 0 0 0 3.62,-3.81 21.23,21.23 0 0 0 1.28,-1.91 14.85,14.85 0 0 0 1,-1.76 c 1.03,-2.25 1.36,-3.76 1.49,-3.73 z"
           style="fill:#ffffff;stroke-width:0.694089"
           id="path552" /><path
           d="m 661.05,407.53 a 9.37,9.37 0 0 1 -1.64,0.29 15.11,15.11 0 0 1 -1.95,0.2 23.22,23.22 0 0 1 -2.59,0.08 26.77,26.77 0 0 1 -3.13,-0.15 c -1.13,-0.07 -2.32,-0.29 -3.58,-0.48 a 43.91,43.91 0 0 1 -7.92,-2.36 42.79,42.79 0 0 1 -7.26,-3.95 c -1,-0.75 -2,-1.43 -2.87,-2.19 a 27.35,27.35 0 0 1 -2.32,-2.11 c -0.71,-0.65 -1.26,-1.33 -1.77,-1.89 a 14.43,14.43 0 0 1 -1.23,-1.52 9.94,9.94 0 0 1 -1,-1.36 8.81,8.81 0 0 1 1.11,1.23 16.65,16.65 0 0 0 1.3,1.45 c 0.52,0.54 1.09,1.2 1.8,1.82 a 29.49,29.49 0 0 0 2.35,2.05 c 0.84,0.73 1.84,1.4 2.86,2.13 a 45.35,45.35 0 0 0 7.19,3.86 44.57,44.57 0 0 0 7.81,2.36 c 1.24,0.21 2.41,0.45 3.53,0.53 a 29.68,29.68 0 0 0 3.1,0.22 c 1,0.06 1.81,0 2.57,0 a 17.14,17.14 0 0 0 1.94,-0.11 11.33,11.33 0 0 1 1.7,-0.1 z"
           style="fill:#455a64;stroke-width:0.694089"
           id="path554" /><path
           d="m 580.88,458 c -0.14,0 2,-9.94 4.79,-22.14 2.79,-12.2 5.15,-22.06 5.29,-22 0.14,0.06 -2,9.95 -4.79,22.15 -2.79,12.2 -5.17,22.06 -5.29,21.99 z"
           style="fill:#455a64;stroke-width:0.694089"
           id="path556" /><path
           d="m 533.14,243.75 v 0 a 11.56,11.56 0 0 0 -1,-5.62 l -30.35,-66.44 c -7.07,-19.07 -24.07,-30.86 -42.94,-23.26 l -1.71,0.81 A 36.37,36.37 0 0 0 438.63,195 c 6.22,16.5 13.31,34.64 17.44,43.12 8.55,17.55 27.5,12 27.5,12 l 3.54,6.76 c 0,0 3.7,12.73 19.52,10.95 12.17,-1.38 21.17,-13.19 24.69,-18.58 a 11.48,11.48 0 0 0 1.82,-5.5 z"
           style="fill:#c78976;stroke-width:0.694089"
           id="path558" /><path
           d="m 483.42,250.09 a 47.31,47.31 0 0 0 19.93,-17.69 c 0,0 0.56,15.27 -17.81,22 z"
           style="fill:#925b4c;stroke-width:0.694089"
           id="path560" /><path
           d="m 450,208.27 a 2.78,2.78 0 0 0 3.63,1.4 2.67,2.67 0 0 0 1.53,-3.5 2.79,2.79 0 0 0 -3.63,-1.4 2.66,2.66 0 0 0 -1.53,3.5 z"
           style="fill:#263238;stroke-width:0.694089"
           id="path562" /><path
           d="m 446.5,201.81 c 0.47,0.19 1.71,-2.13 4.43,-3.4 2.72,-1.27 5.34,-0.86 5.48,-1.33 0.08,-0.22 -0.52,-0.66 -1.69,-0.88 a 7.65,7.65 0 0 0 -4.58,0.65 7.43,7.43 0 0 0 -3.33,3.13 c -0.53,1.02 -0.53,1.76 -0.31,1.83 z"
           style="fill:#263238;stroke-width:0.694089"
           id="path564" /><path
           d="m 474.87,196.72 a 2.78,2.78 0 0 0 3.63,1.4 2.66,2.66 0 0 0 1.53,-3.5 2.78,2.78 0 0 0 -3.63,-1.4 2.67,2.67 0 0 0 -1.53,3.5 z"
           style="fill:#263238;stroke-width:0.694089"
           id="path566" /><path
           d="m 473.41,189.73 c 0.46,0.18 1.71,-2.14 4.42,-3.41 2.71,-1.27 5.35,-0.85 5.49,-1.33 0.07,-0.21 -0.52,-0.66 -1.69,-0.88 a 7.65,7.65 0 0 0 -4.58,0.66 7.31,7.31 0 0 0 -3.33,3.12 c -0.53,1.04 -0.54,1.76 -0.31,1.84 z"
           style="fill:#263238;stroke-width:0.694089"
           id="path568" /><path
           d="m 473.06,214.5 c -0.06,-0.16 -1.88,0.34 -4.78,1.28 -0.73,0.26 -1.45,0.43 -1.79,0 a 3.91,3.91 0 0 1 -0.51,-2.27 c -0.14,-2 -0.28,-4.06 -0.44,-6.24 -0.7,-8.86 -1.56,-16 -1.91,-16 -0.35,0 -0.08,7.23 0.62,16.08 q 0.28,3.27 0.55,6.24 a 4.46,4.46 0 0 0 0.92,2.89 1.92,1.92 0 0 0 1.62,0.47 5,5 0 0 0 1.25,-0.39 c 2.82,-1.11 4.53,-1.9 4.47,-2.06 z"
           style="fill:#263238;stroke-width:0.694089"
           id="path570" /><path
           d="m 481.93,212.6 c -0.45,0.19 0.93,3.13 -0.6,6.41 -1.53,3.28 -4.82,4.44 -4.65,4.86 0,0.21 1,0.24 2.31,-0.35 a 8.08,8.08 0 0 0 4,-3.88 7.09,7.09 0 0 0 0.32,-5.29 c -0.51,-1.28 -1.19,-1.86 -1.38,-1.75 z"
           style="fill:#263238;stroke-width:0.694089"
           id="path572" /><path
           d="m 467.69,179.43 c 0.61,0.61 3.16,-1 6.52,-2.14 3.36,-1.14 6.35,-1.46 6.46,-2.33 0,-0.4 -0.74,-0.88 -2.11,-1.11 a 11.93,11.93 0 0 0 -9.89,3.4 c -0.95,1.03 -1.26,1.88 -0.98,2.18 z"
           style="fill:#263238;stroke-width:0.694089"
           id="path574" /><path
           d="m 443.79,193.49 c 0.77,0.39 2.34,-1.13 4.57,-2.22 2.23,-1.09 4.35,-1.55 4.48,-2.4 0,-0.4 -0.55,-0.88 -1.65,-1.07 a 7.07,7.07 0 0 0 -4.22,0.76 7,7 0 0 0 -3.08,3 c -0.49,0.97 -0.45,1.73 -0.1,1.93 z"
           style="fill:#263238;stroke-width:0.694089"
           id="path576" /><path
           d="m 436.5,186.07 c 0,0 -0.56,-13.25 3.55,-18.35 5,-6.17 11.1,-0.4 16.44,-5 5.34,-4.6 10.09,-10.53 18.62,-8.74 9.33,1.95 7.83,7.12 12,14.76 16.72,30.94 26.76,37.18 21.34,21.44 -0.59,-1.72 3.34,-5.17 0.75,-12.41 -3.37,-9.39 -8.17,-20.46 -13.18,-25.88 -4.23,-4.58 -9,-6.84 -16.46,-8.34 -11.72,-2.36 -23.69,3.12 -31.39,7.75 -7.7,4.63 -18.94,21.28 -11.67,34.77 z"
           style="fill:#263238;stroke-width:0.694089"
           id="path578" /><path
           d="m 507.06,190.22 a 5.31,5.31 0 0 1 3,-7.07 c 3.44,-1.24 8,-1.1 11,5.81 5.31,12.25 -8.09,15.06 -8.26,14.72 -0.17,-0.34 -3.56,-8.32 -5.74,-13.46 z"
           style="fill:#c78976;stroke-width:0.694089"
           id="path580" /><path
           d="m 513.45,197.91 c 0,-0.06 0.27,0.06 0.71,0.07 a 2.41,2.41 0 0 0 1.61,-0.66 c 1.08,-1 1.28,-3.57 0.38,-5.8 a 7.62,7.62 0 0 0 -1.92,-2.8 2.68,2.68 0 0 0 -2.31,-0.94 1.18,1.18 0 0 0 -1,1.13 c 0,0.42 0.17,0.63 0.11,0.68 -0.06,0.05 -0.35,-0.1 -0.47,-0.64 a 1.49,1.49 0 0 1 0.15,-1 1.72,1.72 0 0 1 1,-0.82 3.26,3.26 0 0 1 3.06,0.93 8,8 0 0 1 2.22,3.09 c 1,2.5 0.73,5.36 -0.82,6.64 a 2.52,2.52 0 0 1 -2.09,0.53 c -0.48,-0.12 -0.67,-0.32 -0.63,-0.41 z"
           style="fill:#925b4c;stroke-width:0.694089"
           id="path582" /><path
           d="m 495.78,166.94 c -1.06,1.81 -2.19,3.7 -4,4.78 -1.81,1.08 -4.48,1 -5.68,-0.71 -0.54,-0.77 -0.79,-1.84 -1.65,-2.23 -1,-0.47 -2.13,0.35 -3.09,0.94 a 8.52,8.52 0 0 1 -10.6,-1.75 c -0.27,1.76 -2.38,2.69 -4.15,2.46 -1.77,-0.23 -3.31,-1.26 -4.94,-2 -1.63,-0.74 -3.64,-1.1 -5.13,-0.12 -0.83,0.55 -1.41,1.48 -2.35,1.82 -1.65,0.61 -3.3,-0.88 -4.28,-2.34 -0.98,-1.46 -2,-3.21 -3.78,-3.43 -1.78,-0.22 -3,1 -4.38,1.92 -1.38,0.92 -3.4,1.45 -4.45,0.2 a 3.19,3.19 0 0 1 -0.49,-2.44 8.64,8.64 0 0 1 7.83,-7.32 11.71,11.71 0 0 1 18.5,-11.24 11.89,11.89 0 0 1 19,-4.2 8.61,8.61 0 0 1 14.13,7.19 c 2.76,0.21 5.63,1.49 6.86,4 1.23,2.51 0,6.11 -2.76,6.59 a 4.77,4.77 0 0 1 -5.43,7.83"
           style="fill:#263238;stroke-width:0.694089"
           id="path584" /><path
           d="m 445.43,160.72 c 0,0 0,0.08 0.11,0.22 a 4.78,4.78 0 0 0 0.38,0.61 8.16,8.16 0 0 0 2,1.91 9.45,9.45 0 0 0 4,1.59 8.87,8.87 0 0 0 5.61,-0.92 l -0.33,-0.17 a 4.84,4.84 0 0 0 1.81,3.22 13.94,13.94 0 0 0 3.47,2 10,10 0 0 0 2,0.75 4.66,4.66 0 0 0 2.25,-0.2 4.86,4.86 0 0 0 3.27,-3.23 l -0.51,0.08 a 10,10 0 0 0 6.79,4.45 7.27,7.27 0 0 0 4.58,-0.57 13.29,13.29 0 0 0 3.5,-2.7 h -0.39 a 10.53,10.53 0 0 0 4.62,2.37 5.56,5.56 0 0 0 4.74,-0.84 7.32,7.32 0 0 0 2.66,-7.62 l -0.21,0.26 a 6.91,6.91 0 0 0 4.44,-1.35 7.57,7.57 0 0 0 2.28,-2.65 6.32,6.32 0 0 0 0.65,-2.12 2.74,2.74 0 0 0 0,-0.76 7.73,7.73 0 0 1 -0.86,2.77 7.44,7.44 0 0 1 -2.27,2.5 6.61,6.61 0 0 1 -4.22,1.2 h -0.29 l 0.08,0.28 a 6.94,6.94 0 0 1 -2.59,7.1 5.08,5.08 0 0 1 -4.33,0.72 10,10 0 0 1 -4.35,-2.27 l -0.2,-0.18 -0.19,0.19 a 12.6,12.6 0 0 1 -3.35,2.58 6.72,6.72 0 0 1 -4.23,0.52 9.5,9.5 0 0 1 -6.42,-4.19 l -0.34,-0.53 -0.17,0.62 a 4.33,4.33 0 0 1 -2.85,2.84 4.12,4.12 0 0 1 -2,0.19 9,9 0 0 1 -1.88,-0.7 13.5,13.5 0 0 1 -3.37,-1.88 4.42,4.42 0 0 1 -1.68,-2.9 v -0.33 l -0.29,0.16 a 8.51,8.51 0 0 1 -5.34,1 9.49,9.49 0 0 1 -3.94,-1.44 10.09,10.09 0 0 1 -2.64,-2.58 z"
           style="fill:#455a64;stroke-width:0.694089"
           id="path586" /><path
           d="m 462.45,205.46 a 24.56,24.56 0 0 0 -0.74,-3.15 13.15,13.15 0 0 0 -5.31,-6.78 13,13 0 0 0 -5.63,-2 13.11,13.11 0 0 0 -6.74,1.07 11.93,11.93 0 0 0 -3.14,2 12.13,12.13 0 0 0 -2.53,2.93 12.89,12.89 0 0 0 1.09,15.25 12.37,12.37 0 0 0 2.93,2.54 11.79,11.79 0 0 0 3.38,1.53 13,13 0 0 0 16.4,-10.16 25.59,25.59 0 0 0 0.29,-3.22 7,7 0 0 1 0.07,0.84 6,6 0 0 1 0,1 8.48,8.48 0 0 1 -0.15,1.39 13.27,13.27 0 0 1 -9.66,10.63 13.37,13.37 0 0 1 -7.07,0 12.42,12.42 0 0 1 -3.52,-1.57 12.63,12.63 0 0 1 -3,-2.63 13.33,13.33 0 0 1 -1.14,-15.85 12.49,12.49 0 0 1 2.64,-3 12.79,12.79 0 0 1 3.26,-2.06 13.43,13.43 0 0 1 7,-1.05 13.24,13.24 0 0 1 5.78,2.12 13.1,13.1 0 0 1 5.3,7 8.7,8.7 0 0 1 0.34,1.36 5.61,5.61 0 0 1 0.16,1 6.58,6.58 0 0 1 -0.01,0.81 z"
           style="fill:#263238;stroke-width:0.694089"
           id="path588" /><path
           d="m 493.52,190.68 a 22.83,22.83 0 0 0 -0.73,-3.15 13.15,13.15 0 0 0 -5.31,-6.78 12.93,12.93 0 0 0 -12.37,-0.94 12.91,12.91 0 0 0 -5.67,4.93 12.87,12.87 0 0 0 1.09,15.26 13,13 0 0 0 6.31,4.08 13.11,13.11 0 0 0 6.83,0.09 13.1,13.1 0 0 0 9.57,-10.25 22.14,22.14 0 0 0 0.28,-3.22 3.85,3.85 0 0 1 0.07,0.84 4.92,4.92 0 0 1 0,1 9.45,9.45 0 0 1 -0.15,1.39 13.07,13.07 0 0 1 -4.24,7.71 13.3,13.3 0 0 1 -12.49,2.88 13.47,13.47 0 0 1 -6.57,-4.21 13.33,13.33 0 0 1 -1.14,-15.84 13.37,13.37 0 0 1 5.9,-5.1 13.41,13.41 0 0 1 7,-1.06 13.29,13.29 0 0 1 11.1,9.15 9,9 0 0 1 0.34,1.36 5.74,5.74 0 0 1 0.15,1 4.94,4.94 0 0 1 0.03,0.86 z"
           style="fill:#263238;stroke-width:0.694089"
           id="path590" /><path
           d="m 467.49,195.42 a 9.09,9.09 0 0 0 -7.34,3.56 c 0,0 0.11,-0.5 0.59,-1.15 a 6.88,6.88 0 0 1 5.48,-2.66 c 0.78,0.02 1.29,0.19 1.27,0.25 z"
           style="fill:#263238;stroke-width:0.694089"
           id="path592" /><path
           d="m 506.43,186.55 a 45.12,45.12 0 0 1 -6.83,0.43 43.2,43.2 0 0 1 -6.84,-0.09 90,90 0 0 1 13.67,-0.34 z"
           style="fill:#263238;stroke-width:0.694089"
           id="path594" /></g><g
         id="freepik--Device--inject-18"
         style="stroke-width:0.694089"><path
           d="m 401.48,453.21 h 60.44 a 3,3 0 0 1 3,3 v 0 a 3,3 0 0 1 -3,3 h -60.44 a 3,3 0 0 1 -3,-3 v 0 a 3,3 0 0 1 3,-3 z"
           style="fill:#e0e0e0;stroke-width:0.694089"
           id="path597" /><path
           d="M 411.12,459.24 H 296.8 L 285.51,382 a 6.59,6.59 0 0 1 6.51,-7.57 l 100.38,0.81 c 3.25,0 6.36,1.57 6.85,4.79 z"
           style="fill:#e0e0e0;stroke-width:0.694089"
           id="path599" /><path
           d="m 352.75,415.92 a 6.29,6.29 0 1 1 -6.28,-6.28 6.28,6.28 0 0 1 6.28,6.28 z"
           style="fill:#ffffff;stroke-width:0.694089"
           id="path601" /><path
           d="m 406.15,458.57 c -0.14,0 -3.33,-18.61 -7.13,-41.6 -3.8,-22.99 -6.77,-41.67 -6.62,-41.7 0.15,-0.03 3.33,18.61 7.13,41.61 3.8,23 6.76,41.66 6.62,41.69 z"
           style="fill:#263238;stroke-width:0.694089"
           id="path603" /></g><g
         id="freepik--Desk--inject-18"
         style="stroke-width:0.694089"><rect
           x="28.24"
           y="459.23999"
           width="673.51001"
           height="16.559999"
           style="fill:#455a64;stroke-width:0.694089"
           id="rect606" /><path
           d="m 170.92,459.49 -0.21,0.18 c -0.16,0.11 -0.38,0.28 -0.71,0.49 a 15.06,15.06 0 0 1 -3.38,1.53 30,30 0 0 1 -6.51,1.23 83.72,83.72 0 0 1 -9.07,0.22 c -3.38,-0.06 -7,-0.35 -10.93,-0.71 -3.93,-0.36 -8,-0.76 -12.44,-0.83 -8.83,-0.18 -18.42,1.12 -28,3 -9.58,1.88 -18.59,4.13 -27.18,5.47 -4.29,0.67 -8.45,1.15 -12.39,1.38 a 94,94 0 0 1 -11,0 59.76,59.76 0 0 1 -15.1,-2.68 27.13,27.13 0 0 1 -4.67,-2 1.43,1.43 0 0 1 0.33,0.11 l 0.89,0.38 c 0.79,0.33 2,0.8 3.61,1.31 a 61.67,61.67 0 0 0 15,2.55 92.1,92.1 0 0 0 10.84,-0.01 c 3.9,-0.24 8,-0.73 12.26,-1.41 8.52,-1.35 17.46,-3.55 27.11,-5.49 9.65,-1.94 19.34,-3.24 28.3,-3 4.48,0.09 8.65,0.52 12.53,0.88 3.88,0.36 7.51,0.68 10.84,0.76 a 83.22,83.22 0 0 0 9,-0.15 30.72,30.72 0 0 0 6.42,-1.13 18.22,18.22 0 0 0 4.46,-2.08 z"
           style="fill:#263238;stroke-width:0.694089"
           id="path608" /><path
           d="m 97.25,459.74 a 19.58,19.58 0 0 1 -2,1 59,59 0 0 1 -6.15,2.22 82.69,82.69 0 0 1 -10,2.3 93.69,93.69 0 0 1 -13.13,1.15 84.36,84.36 0 0 1 -23.47,-2.72 16,16 0 0 1 -5.67,-2.6 4.41,4.41 0 0 1 -0.92,-1 c -0.14,-0.25 -0.2,-0.38 -0.18,-0.38 A 12.27,12.27 0 0 0 37,461 a 17.3,17.3 0 0 0 5.67,2.42 88.54,88.54 0 0 0 23.19,2.55 96.46,96.46 0 0 0 12.94,-1.1 90.21,90.21 0 0 0 10,-2.18 c 2.72,-0.79 4.82,-1.54 6.23,-2.08 a 18.82,18.82 0 0 1 2.22,-0.87 z"
           style="fill:#263238;stroke-width:0.694089"
           id="path610" /><path
           d="m 255.28,470.23 c 0,0 0.37,0.07 1,0.22 0.63,0.15 1.72,0.32 3.11,0.46 a 31.4,31.4 0 0 0 11.78,-1 v 0.21 a 42.77,42.77 0 0 0 -14.62,-3.2 46.52,46.52 0 0 0 -19,2.78 c -0.71,0.29 -1.4,0.64 -1.47,1.07 -0.07,0.43 0.49,0.83 1.26,1.07 a 14,14 0 0 0 2.61,0.52 l 2.87,0.36 c 3.86,0.48 7.84,1 12,1.3 a 126,126 0 0 0 12.71,0.49 c 2.17,0 4.36,-0.15 6.53,-0.35 1.09,-0.11 2.18,-0.22 3.25,-0.38 a 28.31,28.31 0 0 0 3.15,-0.58 12.22,12.22 0 0 0 4.08,-1.65 c 1,-0.73 1.35,-1.7 0.78,-2.55 a 6.69,6.69 0 0 0 -3.2,-2 37,37 0 0 0 -4.47,-1.23 103.79,103.79 0 0 0 -18.71,-2.18 133.62,133.62 0 0 0 -31.94,2.73 108.24,108.24 0 0 0 -19.23,5.91 c -2.05,0.89 -3.63,1.6 -4.64,2.12 l -1.19,0.56 -0.42,0.19 a 1.78,1.78 0 0 1 0.36,-0.22 l 1.14,-0.6 c 1,-0.55 2.53,-1.28 4.56,-2.2 a 102.88,102.88 0 0 1 19.19,-6.08 132.21,132.21 0 0 1 32.23,-2.89 104.24,104.24 0 0 1 19,2.19 36.5,36.5 0 0 1 4.62,1.26 7.24,7.24 0 0 1 3.53,2.24 c 0.69,1 0.28,2.17 -0.9,3 a 13,13 0 0 1 -4.4,1.8 29.62,29.62 0 0 1 -3.28,0.6 c -1.09,0.16 -2.2,0.28 -3.31,0.39 -2.22,0.2 -4.44,0.33 -6.64,0.35 a 125.6,125.6 0 0 1 -12.86,-0.5 c -4.15,-0.35 -8.15,-0.83 -12,-1.32 l -2.87,-0.38 a 14.52,14.52 0 0 1 -2.82,-0.56 3.84,3.84 0 0 1 -1.18,-0.59 0.92,0.92 0 0 1 -0.43,-0.89 c 0.14,-0.66 1,-1.06 1.78,-1.36 a 47.46,47.46 0 0 1 19.49,-2.79 42.64,42.64 0 0 1 14.84,3.35 l 0.27,0.12 -0.3,0.09 a 31.48,31.48 0 0 1 -12.05,0.94 21.07,21.07 0 0 1 -4.21,-0.82 z"
           style="fill:#263238;stroke-width:0.694089"
           id="path612" /><path
           d="m 342,459.92 a 2.27,2.27 0 0 1 0.66,0.83 3.72,3.72 0 0 1 0.45,2.49 c -0.22,2.13 -2.55,4.93 -6.56,7.22 a 35.11,35.11 0 0 1 -6.13,2.93 38.9,38.9 0 0 1 -5.91,1.61 c -1.77,0.34 -3.26,0.51 -4.28,0.61 a 10.35,10.35 0 0 1 -1.62,0.07 c 0,-0.08 2.26,-0.26 5.7,-1 A 41.66,41.66 0 0 0 330,473 a 36.13,36.13 0 0 0 5.94,-2.89 c 3.93,-2.24 6.22,-4.9 6.58,-6.94 A 5.3,5.3 0 0 0 342,459.92 Z"
           style="fill:#263238;stroke-width:0.694089"
           id="path614" /><path
           d="m 462.9,474.93 c -0.08,0 -0.95,-0.7 -3.1,-1.69 a 31.5,31.5 0 0 0 -10.53,-2.67 41,41 0 0 0 -8,0.13 60.64,60.64 0 0 1 -9.4,0.49 26.94,26.94 0 0 1 -9.36,-2.58 42,42 0 0 0 -9.4,-3.14 60.15,60.15 0 0 0 -20.88,-0.18 69.75,69.75 0 0 0 -15.45,4.4 87.11,87.11 0 0 0 -9,4.3 l -2.29,1.27 a 5.63,5.63 0 0 1 -0.82,0.42 3.83,3.83 0 0 1 0.7,-0.49 c 0.48,-0.31 1.21,-0.76 2.18,-1.33 a 75.82,75.82 0 0 1 8.84,-4.44 69,69 0 0 1 15.61,-4.55 61.23,61.23 0 0 1 21.37,0.16 42.72,42.72 0 0 1 9.62,3.21 25.77,25.77 0 0 0 8.95,2.52 61,61 0 0 0 9.2,-0.44 42.17,42.17 0 0 1 8.23,-0.08 30.69,30.69 0 0 1 10.63,2.86 11.67,11.67 0 0 1 2.9,1.83 z"
           style="fill:#263238;stroke-width:0.694089"
           id="path616" /><path
           d="m 570.88,459.4 a 5.62,5.62 0 0 1 -0.74,0.57 c -0.52,0.35 -1.21,0.91 -2.3,1.54 a 65.54,65.54 0 0 1 -9.83,4.91 107.35,107.35 0 0 1 -17.01,5.31 c -3.41,0.78 -7.08,1.48 -11,2 a 98.41,98.41 0 0 1 -12.3,0.89 103.3,103.3 0 0 1 -23.35,-2.73 105.46,105.46 0 0 1 -17,-5.41 67.46,67.46 0 0 1 -9.77,-5 c -1.08,-0.63 -1.78,-1.18 -2.3,-1.54 a 5.21,5.21 0 0 1 -0.74,-0.56 6.62,6.62 0 0 1 0.87,0.5 c 0.56,0.34 1.3,0.87 2.41,1.48 a 74.76,74.76 0 0 0 9.88,4.81 107.52,107.52 0 0 0 16.9,5.28 103.25,103.25 0 0 0 23.06,2.66 98.19,98.19 0 0 0 12.13,-0.87 c 3.87,-0.48 7.51,-1.16 10.9,-1.92 a 111.75,111.75 0 0 0 17,-5.19 72.79,72.79 0 0 0 9.94,-4.77 c 1.12,-0.6 1.84,-1.14 2.41,-1.47 a 7.27,7.27 0 0 1 0.84,-0.49 z"
           style="fill:#263238;stroke-width:0.694089"
           id="path618" /><path
           d="m 555.45,459.24 c 0,0 -0.18,0.11 -0.57,0.26 -0.39,0.15 -1,0.4 -1.75,0.67 -1.53,0.56 -3.81,1.32 -6.74,2.14 a 104.46,104.46 0 0 1 -10.66,2.44 79.78,79.78 0 0 1 -13.91,1.34 93.79,93.79 0 0 1 -24.69,-3.51 70.27,70.27 0 0 1 -6.69,-2.21 c -0.76,-0.28 -1.31,-0.53 -1.7,-0.7 a 2.21,2.21 0 0 1 -0.55,-0.27 c 0,0 0.88,0.29 2.43,0.82 1.55,0.53 3.83,1.28 6.77,2.07 a 98.5,98.5 0 0 0 24.43,3.33 81.18,81.18 0 0 0 13.68,-1.28 c 4.12,-0.69 7.69,-1.54 10.63,-2.32 2.94,-0.78 5.26,-1.49 6.84,-2 1.58,-0.51 2.45,-0.81 2.48,-0.78 z"
           style="fill:#263238;stroke-width:0.694089"
           id="path620" /><path
           d="m 673.24,460.94 h -1.34 l -3.8,-0.08 -2.73,-0.07 h -3.27 c -2.35,0 -5,0 -8,0 l -4.62,0.08 -5,0.19 c -3.46,0.1 -7.08,0.36 -10.92,0.57 -7.61,0.54 -15.86,1.31 -24.25,2.36 -8.39,1.05 -16,2.37 -22.72,3.65 -3.27,0.69 -6.48,1.3 -9.24,2 l -4.07,0.95 -3.6,0.95 c -2.34,0.59 -4.27,1.19 -6,1.7 l -2.42,0.72 -1.91,0.64 -2.69,0.88 a 7.12,7.12 0 0 1 -1,0.29 3.73,3.73 0 0 1 0.8,-0.35 l 2.5,-0.94 1.83,-0.68 2.35,-0.74 c 1.69,-0.54 3.59,-1.16 5.91,-1.77 l 3.57,-1 4.06,-1 c 2.75,-0.7 6,-1.33 9.24,-2 6.75,-1.31 14.45,-2.61 22.89,-3.71 8.44,-1.1 16.81,-1.83 24.51,-2.35 3.89,-0.2 7.55,-0.45 11,-0.53 l 5,-0.17 4.67,-0.05 c 3,-0.06 5.66,0 8,0 h 3.29 l 2.74,0.11 3.79,0.17 a 10.59,10.59 0 0 1 1.43,0.18 z"
           style="fill:#263238;stroke-width:0.694089"
           id="path622" /><path
           d="m 475,474.6 a 25.6,25.6 0 0 0 -3.71,-2.48 45.82,45.82 0 0 0 -13.57,-4.26 c -3.16,-0.56 -6.73,-1 -10.59,-1.32 -3.86,-0.32 -8,-0.61 -12.39,-1 -4.39,-0.39 -8.86,-1.1 -13.44,-1.89 -4.58,-0.79 -9.3,-1.65 -14.3,-1.99 a 103.51,103.51 0 0 0 -28,2.17 c -4.12,0.85 -7.88,1.87 -11.37,2.87 -3.49,1 -6.67,2 -9.57,2.92 -5.8,1.84 -10.41,3.41 -13.6,4.5 l -3.65,1.26 -1,0.32 -0.34,0.1 a 1.31,1.31 0 0 1 0.29,-0.14 l 0.91,-0.36 3.58,-1.33 c 3.13,-1.14 7.71,-2.76 13.48,-4.64 2.88,-0.94 6.07,-1.95 9.55,-3 3.48,-1.05 7.26,-2.07 11.42,-2.93 a 103.31,103.31 0 0 1 28.31,-2.23 146,146 0 0 1 14.48,2 c 4.58,0.8 9,1.5 13.35,1.91 4.35,0.41 8.48,0.72 12.36,1.08 3.88,0.36 7.47,0.8 10.66,1.38 a 44.39,44.39 0 0 1 13.66,4.46 12.36,12.36 0 0 1 3.48,2.6 z"
           style="fill:#263238;stroke-width:0.694089"
           id="path624" /><path
           d="m 323.3,459.49 a 2.16,2.16 0 0 1 -0.1,1.06 8.66,8.66 0 0 1 -1.32,2.79 c -1.55,2.26 -4.74,5.32 -10.35,7.45 a 102.15,102.15 0 0 1 -15.34,4 c -2.06,0.38 -3.73,0.66 -4.9,0.83 a 13.18,13.18 0 0 1 -1.84,0.21 14.3,14.3 0 0 1 1.74,-0.39 l 4.8,-1 a 115.8,115.8 0 0 0 15.08,-4.05 22.83,22.83 0 0 0 10.27,-7.18 16.07,16.07 0 0 0 1.96,-3.72 z"
           style="fill:#263238;stroke-width:0.694089"
           id="path626" /><path
           d="m 166.94,475.8 a 12.21,12.21 0 0 1 1.64,-0.88 c 1.09,-0.56 2.72,-1.31 4.8,-2.21 a 173.62,173.62 0 0 1 17.17,-6.22 c 7,-2.17 13.54,-3.9 18.29,-5.12 2.37,-0.61 4.3,-1.1 5.64,-1.42 a 17.41,17.41 0 0 1 2.12,-0.46 14.86,14.86 0 0 1 -2,0.62 l -5.53,1.56 c -4.68,1.3 -11.16,3.07 -18.14,5.22 -6.98,2.15 -13,4.36 -17.22,6.08 -2.11,0.86 -3.8,1.58 -4.94,2.09 a 13.06,13.06 0 0 1 -1.83,0.74 z"
           style="fill:#263238;stroke-width:0.694089"
           id="path628" /><path
           d="m 198.67,460.17 c 0,0.05 -1.55,-0.12 -4.34,0 a 50.36,50.36 0 0 0 -11.24,1.92 128.55,128.55 0 0 0 -14.59,5.51 93.17,93.17 0 0 1 -8.79,3.2 76,76 0 0 1 -10.52,2.28 172,172 0 0 1 -21.51,1.45 c -6.66,0.11 -12.64,0 -17.65,0.15 -5.01,0.15 -9,0.38 -11.81,0.65 -1.38,0.14 -2.45,0.26 -3.17,0.36 a 8.08,8.08 0 0 1 -1.11,0.11 c 0,0 0.36,-0.08 1.07,-0.2 0.71,-0.12 1.77,-0.28 3.15,-0.45 2.75,-0.33 6.81,-0.66 11.84,-0.8 5.03,-0.14 11,-0.12 17.65,-0.25 a 174.19,174.19 0 0 0 21.35,-1.47 78,78 0 0 0 10.35,-2.23 c 3.16,-0.95 6,-2.06 8.72,-3.15 a 122.76,122.76 0 0 1 14.78,-5.45 49.12,49.12 0 0 1 11.46,-1.8 c 1.41,0 2.51,0 3.25,0.06 a 7.88,7.88 0 0 1 1.11,0.11 z"
           style="fill:#263238;stroke-width:0.694089"
           id="path630" /></g></g></g></svg>
